<svg width="72" height="50" viewBox="0 0 72 50" fill="none" xmlns="http://www.w3.org/2000/svg">
<path d="M49.758 13.8087L35.9493 27.6175L30.498 22.1669L31.2286 18.5294L35.9493 23.2502L45.3907 13.8087L35.9493 4.36733L31.2286 9.08804L30.498 5.45062L35.9493 0L49.758 13.8087Z" fill="white"/>
<path d="M38.8562 13.8088L30.4987 22.1669L22.1406 13.8088L30.4987 5.45068L38.8562 13.8088ZM34.4889 13.8088L30.4987 9.81863L26.5086 13.8088L30.4987 17.799L34.4889 13.8088Z" fill="white"/>
<path d="M4.13866 39.6657V40.2299H3.03342V39.6591C1.61867 39.5792 0.310547 38.9949 0.310547 37.3889C0.310547 35.7779 1.61745 35.2064 3.03342 35.1187V34.585H4.13866V35.1114C5.5528 35.1918 6.85361 35.7877 6.85361 37.3889C6.85361 39.001 5.56681 39.5939 4.13866 39.6664V39.6657ZM57.9662 43.7089H59.1603V47.0923L61.6383 43.7089H62.7661V48.9018H61.5792V45.5264L59.1019 48.9018H57.9668V43.7089H57.9662ZM58.9233 42.24H59.7471C59.7568 42.6013 59.9622 42.7816 60.3625 42.7816C60.7268 42.7816 60.9675 42.625 60.9784 42.24H61.8022C61.7906 43.1167 61.1399 43.3757 60.3625 43.3757C59.4132 43.3757 58.9331 42.9973 58.9233 42.24ZM51.8021 43.7089H52.9963V47.0923L55.4742 43.7089H56.6014V48.9018H55.4145V45.5264L52.9372 48.9018H51.8021V43.7089ZM50.9338 47.9227V49.9998H49.8286V48.9018H45.4887V43.7089H46.6829V47.9227H48.9976V43.7089H50.1917V47.9227H50.9338ZM43.0034 47.7887H40.5925L40.1325 48.9018H38.9012L41.2152 43.7089H42.4027L44.7241 48.9018H43.4628L43.0028 47.7887H43.0034ZM42.6251 46.8766L41.8019 44.8885L40.9782 46.8766H42.6251ZM38.4631 47.4402C38.4631 48.5814 37.4054 48.9018 36.4458 48.9018H33.8862V43.7089H36.3044C37.1866 43.7089 38.2182 43.9874 38.2182 45.0518C38.2182 45.5715 37.9452 45.9682 37.484 46.1942C38.0926 46.3752 38.4631 46.7919 38.4631 47.4408V47.4402ZM35.0804 45.8603H36.2002C36.6292 45.8603 36.9941 45.7153 36.9941 45.2297C36.9941 44.7539 36.62 44.5997 36.2002 44.5997H35.0804V45.8603ZM37.2464 47.3439C37.2464 46.9137 36.9649 46.6987 36.4007 46.6987H35.0804V48.0123H36.4007C36.9649 48.0123 37.2464 47.7893 37.2464 47.3445V47.3439ZM27.2018 46.3057C27.2018 44.6893 28.4752 43.62 30.0434 43.62C31.6056 43.62 32.8845 44.696 32.8845 46.3057C32.8845 47.9148 31.605 48.9914 30.0434 48.9914C28.4752 48.9914 27.2018 47.9215 27.2018 46.3057ZM31.6678 46.3057C31.6678 45.3564 31.0037 44.6436 30.0428 44.6436C29.0826 44.6436 28.4179 45.3558 28.4179 46.3057C28.4179 47.2549 29.0826 47.9672 30.0428 47.9672C31.0031 47.9672 31.6678 47.2543 31.6678 46.3057ZM26.1928 43.7089V48.9018H24.9907V46.7724H22.6321V48.9018H21.43V43.7089H22.6321V45.7567H24.9907V43.7089H26.1928ZM20.0579 43.7089V48.9018H18.8558V46.7724H16.4967V48.9018H15.2952V43.7089H16.4967V45.7567H18.8558V43.7089H20.0579ZM9.13049 43.7089H10.3247V47.0923L12.8026 43.7089H13.9304V48.9018H12.7435V45.5264L10.2656 48.9018H9.13049V43.7089ZM71.586 34.8067V39.9996H70.3985V38.6196H69.3006L68.3806 39.9996H67.1121L68.1954 38.4344C67.4624 38.1346 67.1048 37.5223 67.1048 36.743C67.1048 35.4191 68.1223 34.8067 69.3451 34.8067H71.5854H71.586ZM68.3215 36.729C68.3215 37.3797 68.7236 37.671 69.3451 37.671H70.3985V35.7865H69.3749C68.7456 35.7865 68.3215 36.0594 68.3215 36.729ZM61.2739 34.8067H62.4681V38.1901L64.9461 34.8067H66.0739V39.9996H64.887V36.6242L62.409 39.9996H61.2739V34.8067ZM60.4429 35.7859H58.7814V39.9996H57.5945V35.7859H55.9403V34.8067H60.4435V35.7859H60.4429ZM50.3093 34.8067H51.5035V38.1901L53.9815 34.8067H55.1092V39.9996H53.9224V36.6242L51.445 39.9996H50.3099V34.8067H50.3093ZM49.2857 38.5386C49.2857 39.6798 48.2274 39.9996 47.2678 39.9996H44.7082V34.8067H47.1271C48.0087 34.8067 49.0408 35.0852 49.0408 36.1496C49.0408 36.6693 48.7685 37.0659 48.3066 37.292C48.9141 37.4729 49.2857 37.8897 49.2857 38.5386ZM45.903 36.9581H47.0235C47.4518 36.9581 47.8174 36.8131 47.8174 36.3275C47.8174 35.8516 47.4427 35.6969 47.0235 35.6969H45.903V36.9581ZM48.0696 38.4417C48.0696 38.0116 47.7875 37.7965 47.2239 37.7965H45.903V39.1095H47.2239C47.7875 39.1095 48.0696 38.8871 48.0696 38.4417ZM43.6858 38.5459C43.6858 39.6999 42.3089 40.0886 41.3712 40.0886C40.6486 40.0886 39.9284 39.9095 39.3015 39.5469L39.6725 38.686C40.1258 38.9626 40.701 39.1089 41.2304 39.1089C41.6898 39.1089 42.4691 38.9693 42.4691 38.3747C42.4691 37.8946 41.9573 37.7885 41.5716 37.7885H40.3031V36.8838H41.4827C41.8428 36.8838 42.254 36.7558 42.254 36.3269C42.254 35.8102 41.6143 35.6817 41.2085 35.6817C40.7284 35.6817 40.2306 35.8157 39.8139 36.0521L39.4501 35.1181C39.9985 34.836 40.5925 34.6946 41.2304 34.6946C42.1334 34.6946 43.4708 35.0742 43.4708 36.1862C43.4708 36.6925 43.1759 37.0885 42.7214 37.2914C43.2892 37.487 43.6864 37.9256 43.6864 38.5453L43.6858 38.5459ZM37.2835 38.8871H34.8726L34.4126 39.9996H33.1812L35.4959 34.8067H36.6834L39.0053 39.9996H37.7441L37.2841 38.8871H37.2835ZM36.9052 37.975L36.082 35.9869L35.2583 37.975H36.9052ZM33.1587 36.6912C33.1587 38.0067 32.0924 38.5678 30.9037 38.5678H29.8576V39.9996H28.6555V34.8067H30.9037C32.0943 34.8067 33.1587 35.3788 33.1587 36.6912ZM31.942 36.6912C31.942 36.0168 31.4411 35.7859 30.8367 35.7859H29.8576V37.5887H30.8367C31.4344 37.5887 31.942 37.3602 31.942 36.6912ZM25.5993 39.0205V41.0756H24.4862V39.9996H20.8214V41.0756H19.7082L19.7155 39.0205H19.9233C20.2352 39.0205 20.4546 38.7829 20.5831 38.3381C20.7117 37.8933 20.7909 37.2579 20.8208 36.4317L20.8799 34.8067H24.8706V39.0205H25.5981H25.5993ZM21.7268 38.0968C21.6476 38.5148 21.5263 38.8225 21.363 39.0205H23.685V35.7859H21.9047L21.8827 36.5426C21.8645 37.161 21.806 37.6789 21.7268 38.0968ZM18.9076 34.8067V39.9996H17.7061V37.8708H15.347V39.9996H14.1449V34.8067H15.347V36.8545H17.7061V34.8067H18.9076ZM7.46106 37.4035C7.46106 35.7877 8.73446 34.7178 10.3027 34.7178C11.8649 34.7178 13.1438 35.7938 13.1438 37.4035C13.1438 39.0126 11.8649 40.0886 10.3027 40.0886C8.73446 40.0886 7.46106 39.0187 7.46106 37.4035ZM11.9271 37.4035C11.9271 36.4542 11.263 35.7414 10.3027 35.7414C9.34252 35.7414 8.6778 36.4542 8.6778 37.4035C8.6778 38.3528 9.34252 39.065 10.3027 39.065C11.263 39.065 11.9271 38.3528 11.9271 37.4035ZM3.03281 38.7238V36.0606C2.19322 36.1392 1.47488 36.4299 1.47488 37.3883C1.47488 38.1694 1.99399 38.6147 3.03281 38.7238ZM5.69598 37.3809C5.69598 36.5901 5.17687 36.1496 4.13805 36.0606V38.7238C4.97764 38.6446 5.69598 38.3357 5.69598 37.3809Z" fill="white"/>
</svg>
