<svg width="502" height="281" viewBox="0 0 502 281" fill="none" xmlns="http://www.w3.org/2000/svg">
<path fill-rule="evenodd" clip-rule="evenodd" d="M424.979 130.463C424.445 131.472 420.096 142.69 415.315 155.391C410.533 168.091 406.35 179.173 406.021 180.016C405.514 181.315 402.532 181.645 386.465 182.179C339.602 183.738 306.203 191.832 279.577 208.084L276.318 210.074L279.953 204.381C291.223 186.734 311.133 166.29 327.644 155.413C347.099 142.596 384.895 131.54 417.067 129.257C425.6 128.651 425.911 128.698 424.979 130.463ZM447.133 194.341L484.424 194.84L459.876 215.51L424.275 214.906C348.811 213.625 314.609 218.431 283.758 234.651C278.973 237.167 272.695 240.957 269.806 243.073C266.918 245.19 263.981 247.264 263.281 247.682C261.349 248.834 265.119 241.944 270.177 235.075C285.903 213.723 307.984 201.864 341.528 196.753C351.437 195.242 389.828 193.289 402.626 193.644C406.595 193.754 426.624 194.068 447.133 194.341ZM501.249 228.775C500.72 229.305 482.318 241.258 460.357 255.338L420.427 280.938L256.253 280.954L258.48 276.941C259.704 274.735 264.081 269.351 268.206 264.979C287.507 244.522 316.395 233.435 359.28 230.025C376.092 228.689 394.019 228.709 432.607 230.108C462.454 231.191 484.45 230.604 498.843 228.341C501.091 227.987 501.891 228.131 501.249 228.775Z" fill="#DC1F81"/>
<path fill-rule="evenodd" clip-rule="evenodd" d="M76.7983 130.463C77.3323 131.472 81.6813 142.69 86.4633 155.391C91.2453 168.091 95.4279 179.173 95.7569 180.016C96.264 181.315 99.2458 181.645 115.313 182.179C162.176 183.738 195.575 191.832 222.201 208.084L225.46 210.074L221.825 204.381C210.555 186.734 190.644 166.29 174.134 155.413C154.678 142.596 116.882 131.54 84.7112 129.257C76.1777 128.651 75.867 128.698 76.7983 130.463ZM54.6444 194.341L17.3535 194.84L41.9023 215.51L77.5026 214.906C152.967 213.625 187.169 218.431 218.02 234.651C222.805 237.167 229.083 240.957 231.972 243.073C234.86 245.19 237.797 247.264 238.497 247.682C240.429 248.834 236.659 241.944 231.601 235.075C215.874 213.723 193.794 201.864 160.249 196.753C150.341 195.242 111.949 193.289 99.1515 193.644C95.1825 193.754 75.154 194.068 54.6444 194.341ZM0.528938 228.775C1.05813 229.305 19.4597 241.258 41.4212 255.338L81.3513 280.938L245.525 280.954L243.298 276.941C242.073 274.735 237.696 269.351 233.572 264.979C214.27 244.522 185.383 233.435 142.497 230.025C125.686 228.689 107.759 228.709 69.1712 230.108C39.3237 231.191 17.3275 230.604 2.93437 228.341C0.686735 227.987 -0.11283 228.131 0.528938 228.775Z" fill="#DC1F81"/>
<path d="M274.533 166.455C274.533 179.74 263.764 190.51 250.479 190.51C237.194 190.51 226.425 179.74 226.425 166.455C226.425 153.171 237.194 142.401 250.479 142.401C263.764 142.401 274.533 153.171 274.533 166.455Z" fill="white"/>
<path d="M317.808 134.079C310.985 121.231 301.171 110.562 289.352 103.144C277.533 95.7257 264.126 91.8205 250.479 91.8205C236.832 91.8205 223.425 95.7257 211.607 103.144C199.788 110.562 189.974 121.231 183.15 134.079L205.607 148.174C210.155 139.611 216.696 132.501 224.572 127.557C232.449 122.613 241.384 120.011 250.479 120.011C259.574 120.011 268.509 122.613 276.386 127.557C284.263 132.501 290.804 139.611 295.351 148.174L317.808 134.079Z" fill="white"/>
<path d="M354.382 111.124C343.852 91.2963 328.707 74.8314 310.468 63.384C292.229 51.9367 271.54 45.9101 250.479 45.9101C229.419 45.9101 208.73 51.9367 190.491 63.3841C172.252 74.8315 157.106 91.2963 146.576 111.124L168.333 124.78C176.659 109.104 188.633 96.0869 203.052 87.0366C217.472 77.9863 233.829 73.2216 250.479 73.2216C267.13 73.2216 283.486 77.9862 297.906 87.0365C312.326 96.0868 324.3 109.104 332.625 124.78L354.382 111.124Z" fill="white"/>
<path d="M390.956 88.1685C376.719 61.3618 356.243 39.1013 331.584 23.6245C306.925 8.14759 278.953 -0.000312187 250.479 -0.000305176C222.006 -0.000298165 194.034 8.14762 169.375 23.6245C144.716 39.1014 124.239 61.3619 110.002 88.1686L132.011 101.982C144.017 79.3754 161.286 60.6025 182.082 47.5504C202.877 34.4984 226.467 27.627 250.479 27.627C274.492 27.627 298.081 34.4983 318.877 47.5504C339.672 60.6025 356.941 79.3753 368.947 101.982L390.956 88.1685Z" fill="white"/>
</svg>
