<svg width="64" height="64" viewBox="0 0 64 64" fill="none" xmlns="http://www.w3.org/2000/svg">
<g id="Frame 2950">
<path id="free-icon-map-point-3119614 1 (Traced)" fill-rule="evenodd" clip-rule="evenodd" d="M29.0679 0.189349C21.7147 1.38947 15.9479 6.85922 14.3101 14.1873C13.9977 15.5847 13.9267 18.9512 14.1809 20.3123C14.6461 22.8027 15.7018 25.3039 17.4957 28.1653C18.0484 29.047 18.5007 29.7924 18.5007 29.8216C18.5007 29.8508 16.8802 29.8748 14.8996 29.8748C12.1973 29.8748 11.2446 29.9142 11.0827 30.0326C10.8403 30.2098 0.259302 62.5753 0.253927 63.1561C0.252177 63.3451 0.363177 63.6123 0.500677 63.7498C0.749302 63.9985 0.917301 63.9998 32.0007 63.9998C63.0841 63.9998 63.252 63.9985 63.5007 63.7498C63.6382 63.6123 63.7492 63.3451 63.7474 63.1561C63.7421 62.5753 53.161 30.2098 52.9187 30.0326C52.7559 29.9136 51.7525 29.8748 48.8374 29.8748H44.9719L45.1994 29.5311C48.6678 24.2903 49.9204 20.4675 49.5247 16.3307C48.768 8.41947 43.3603 2.2286 35.6257 0.418974C33.9288 0.0219739 30.7713 -0.088651 29.0679 0.189349ZM34.9382 2.05835C38.0983 2.72372 40.8456 4.21197 43.1297 6.49597C46.1719 9.53785 47.7834 13.409 47.7886 17.6873C47.7928 21.2273 46.8118 23.855 43.7631 28.4701C42.6428 30.1658 31.9586 46.0342 31.8079 46.226C31.7703 46.274 19.6506 28.3182 18.7783 26.9221C16.7003 23.5961 15.7507 20.7083 15.7507 17.7153C15.7507 14.3652 16.8786 10.944 18.8577 8.28985C20.3046 6.3496 22.5427 4.4806 24.7387 3.37847C25.7732 2.85935 27.8244 2.19285 28.9382 2.01397C29.4194 1.9366 29.9538 1.8496 30.1257 1.82047C30.8227 1.7026 33.9922 1.85922 34.9382 2.05835ZM30.3132 7.50272C28.0482 7.84597 26.1139 8.8496 24.4382 10.551C22.9378 12.0745 22.2299 13.3078 21.6608 15.39C21.3594 16.4931 21.3594 19.1316 21.6608 20.2347C22.2397 22.3528 22.9469 23.5706 24.5007 25.1246C26.3234 26.9477 28.1446 27.8376 30.6601 28.1342C34.9334 28.6382 39.224 26.2593 41.1217 22.3341C42.4752 19.5342 42.4774 16.0951 41.1274 13.3026C39.4677 9.86897 36.0698 7.6386 32.2054 7.44597C31.5772 7.41472 30.7257 7.44022 30.3132 7.50272ZM33.9382 9.45572C35.6309 9.87848 37.3773 11.0047 38.4986 12.3966C41.2034 15.7541 40.958 20.7731 37.9399 23.8235C34.5842 27.2152 29.3367 27.3274 25.9107 24.0805C22.0816 20.4516 22.2479 14.5591 26.2749 11.1797C28.3658 9.4251 31.233 8.77997 33.9382 9.45572ZM25.4999 40.0827C29.5489 46.0966 31.2769 48.5642 31.4999 48.651C31.7254 48.7385 31.9007 48.7246 32.1257 48.601C32.3131 48.4981 34.7087 45.0642 38.1073 40.0271L43.7764 31.6248H46.2666H48.7565L48.681 32.5936C48.6395 33.1263 48.6543 33.785 48.7139 34.0571C48.8107 34.4992 48.7689 34.6561 48.3219 35.5312C47.8579 36.4394 47.8181 36.5995 47.7723 37.738C47.7171 39.1121 47.9153 40.0407 48.4669 40.992C48.8693 41.6858 49.6545 42.5451 50.187 42.8741C50.4772 43.0535 50.6127 43.246 50.6618 43.549C50.7767 44.257 51.3592 45.3366 52.0112 46.05C53.1746 47.323 54.6426 47.9998 56.2399 47.9998H57.0819L57.805 50.2568C58.2028 51.4982 58.4993 52.543 58.4638 52.5783C58.4283 52.6138 57.8832 52.8653 57.2524 53.1373C55.7428 53.7882 54.2367 54.2177 52.6257 54.457C51.5201 54.6212 51.2674 54.7018 51.0228 54.9685C50.6807 55.3415 50.7327 55.8075 51.1564 56.1655C51.3812 56.3554 51.5531 56.3796 52.1823 56.3105C54.0718 56.103 56.4291 55.4543 58.1016 54.6815C58.6179 54.443 59.0612 54.2686 59.0866 54.2941C59.1529 54.3605 61.6257 61.996 61.6257 62.1345C61.6257 62.2045 53.2977 62.2498 40.4343 62.2498C20.3619 62.2498 19.2392 62.2383 19.1728 62.0311C19.1342 61.9108 18.9108 61.4105 18.6764 60.9192C17.8399 59.1671 15.7546 57.7682 13.9557 57.7528C13.7043 57.7507 13.3974 57.5663 12.9212 57.1311C10.7706 55.1655 7.70568 55.017 5.37568 56.7652C5.00593 57.0427 4.67405 57.1873 4.40693 57.1873C4.18355 57.1873 4.00068 57.1506 4.00068 57.1056C4.00068 57.0606 4.25168 56.2445 4.5583 55.2918C5.03793 53.8023 5.1823 53.4965 5.58955 53.1053C7.0228 51.7292 9.37818 50.4033 11.4382 49.8127C12.0569 49.6353 12.6429 49.4107 12.7403 49.3135C13.1866 48.868 12.7761 47.8748 12.1456 47.8748C11.0798 47.8748 8.18568 49.0522 6.44305 50.1947C6.23943 50.3281 6.10605 50.3811 6.14655 50.3123C6.18705 50.2436 6.85018 48.2467 7.62005 45.8748C8.38993 43.503 9.74905 39.3265 10.6406 36.5936L12.2613 31.6248L16.0372 31.6306L19.8132 31.6363L25.4999 40.0827ZM53.3782 36.6561C55.1493 42.096 56.3744 45.8343 56.4768 46.1115C56.528 46.2502 56.4152 46.2735 55.9213 46.226C54.6789 46.1066 53.2988 45.1915 52.7514 44.1241C52.5466 43.7246 52.4107 43.2872 52.1994 42.3481C52.1482 42.1202 51.9418 41.9026 51.57 41.6847C50.348 40.9686 49.6178 39.7968 49.5271 38.4066C49.4564 37.326 49.6443 36.5592 50.1511 35.8597C50.6812 35.1278 50.7351 34.9005 50.5462 34.1915C50.3409 33.4206 50.333 32.9048 50.5155 32.1802C50.654 31.6298 50.6603 31.6248 51.1977 31.6248H51.7401L53.3782 36.6561ZM16.3043 47.5045C15.6968 47.7292 15.5279 48.4577 15.9788 48.9086C16.1964 49.1262 16.4657 49.1833 17.6507 49.2633C19.3247 49.3765 20.2802 49.516 22.3604 49.9511C23.9032 50.2738 23.9086 50.2741 24.2354 50.0303C24.7406 49.6535 24.7519 48.8931 24.2562 48.6278C23.3176 48.1255 17.0277 47.2368 16.3043 47.5045ZM27.6306 50.0235C27.4904 50.1738 27.3757 50.4207 27.3757 50.5721C27.3757 51.1887 27.6954 51.341 31.5632 52.5665C33.6257 53.22 35.4482 53.7395 35.6133 53.721C35.7784 53.7025 36.0283 53.5327 36.1688 53.3438C36.5101 52.8847 36.3444 52.393 35.7482 52.0948C35.1066 51.7741 28.6064 49.7498 28.2181 49.7498C28.0352 49.7498 27.7707 49.873 27.6306 50.0235ZM39.4551 53.509C39.0552 53.8235 39.0046 54.4765 39.3553 54.794C39.7374 55.1397 44.2589 56.0896 46.5829 56.3122C47.3885 56.3893 47.5037 56.3718 47.7392 56.1363C48.1042 55.7713 48.0936 55.0662 47.7194 54.8221C47.5647 54.7211 46.9319 54.578 46.3132 54.5038C44.8444 54.3279 43.4331 54.0701 41.4604 53.6176C40.5789 53.4153 39.8412 53.2498 39.821 53.2498C39.8009 53.2498 39.6362 53.3665 39.4551 53.509ZM10.6657 57.7202C11.1674 57.942 11.5848 58.2568 12.0111 58.7351L12.6291 59.4285L13.6091 59.5127C14.7297 59.609 15.4906 59.9045 16.1852 60.5131C16.6378 60.9096 17.3757 61.9237 17.3757 62.1493C17.3757 62.2046 14.0007 62.2498 9.87568 62.2498C3.9548 62.2498 2.3773 62.217 2.38355 62.0936C2.3878 62.0077 2.60043 61.2905 2.85593 60.4998L3.32055 59.0623L4.46768 58.9998C5.5823 58.9391 5.6283 58.9245 6.08893 58.4818C7.3483 57.2722 9.02205 56.9936 10.6657 57.7202Z" fill="url(#paint0_linear_520_2620)"/>
</g>
<defs>
<linearGradient id="paint0_linear_520_2620" x1="0.253906" y1="0.0351563" x2="67.7603" y2="4.59533" gradientUnits="userSpaceOnUse">
<stop stop-color="#7370FF"/>
<stop offset="1" stop-color="#DC1F81"/>
</linearGradient>
</defs>
</svg>
