<svg width="64" height="64" viewBox="0 0 64 64" fill="none" xmlns="http://www.w3.org/2000/svg">
<g id="Frame 1430102656">
<path id="free-icon-hand-bag-4477799 1 (Traced)" fill-rule="evenodd" clip-rule="evenodd" d="M30.4137 9.25139C26.8778 9.76839 23.7153 12.1109 22.0619 15.4379C21.2902 16.9909 20.9886 18.2215 20.9081 20.1465L20.8418 21.7303L18.7018 21.7715C16.6868 21.8105 16.5201 21.8324 15.8471 22.1479C14.9154 22.5845 14.0021 23.45 13.5274 24.3458C13.0859 25.1794 10.2757 35.9198 10.1601 37.216C10.0711 38.2131 10.2894 39.3381 10.7814 40.4171L11.1709 41.2714L10.6304 44.6443C10.2024 47.3155 10.1063 48.1926 10.1683 48.8605C10.4114 51.4756 12.0966 53.6166 14.6243 54.5219L15.4368 54.8129H31.9993H48.5618L49.3743 54.5253C52.0259 53.5864 53.8704 51.0463 53.8752 48.3271C53.8757 48.0443 53.6401 46.3414 53.3514 44.543L52.8268 41.273L53.2168 40.418C53.7079 39.3409 53.9272 38.216 53.8409 37.216C53.7306 35.9371 50.9153 25.1855 50.4708 24.3458C49.9968 23.4501 49.0834 22.5846 48.1516 22.1479C47.4786 21.8324 47.3118 21.8105 45.2968 21.7715L43.1568 21.7303L43.0902 20.1465C43.0097 18.2356 42.7099 17.0138 41.9348 15.4375C40.6547 12.8346 38.4486 10.8109 35.8511 9.85713C34.1069 9.21663 32.1453 8.99814 30.4137 9.25139ZM34.9069 11.4673C37.4242 12.3391 39.3034 14.0608 40.4227 16.5204C41.0749 17.9539 41.4342 19.8863 41.2844 21.1566L41.2144 21.7504H31.9993H22.7842L22.7142 21.1566C22.5644 19.8863 22.9237 17.9539 23.5759 16.5204C24.5984 14.2733 26.3659 12.5455 28.5517 11.6566C29.8232 11.1394 30.6784 11.0006 32.3118 11.0461C33.5912 11.0818 33.9729 11.1438 34.9069 11.4673ZM47.4447 23.8348C47.7241 23.9843 48.1622 24.3218 48.4182 24.5848C48.9892 25.1709 49.0606 25.3993 50.7564 32.0573C51.9432 36.7168 52.0246 37.1149 51.9707 37.9948C51.9003 39.1418 51.5734 39.8873 50.7422 40.7969C50.0194 41.5876 49.0476 42.1014 47.9829 42.2553C47.5451 42.3185 45.1196 42.3715 42.5931 42.3729L37.9993 42.3754V41.0095C37.9993 38.9574 38.5344 39.1254 31.9993 39.1254C25.4642 39.1254 25.9993 38.9574 25.9993 41.0095V42.3754L21.4056 42.3744C18.8607 42.3739 16.4584 42.3161 16.0197 42.245C14.4681 41.9931 13.2357 41.1129 12.4986 39.7301C12.1581 39.0913 12.0697 38.7683 12.0264 38.0035C11.9767 37.1266 12.0722 36.6733 13.4359 31.3143C14.2406 28.1524 14.9761 25.4163 15.0704 25.2338C15.4421 24.5151 16.3472 23.8233 17.1868 23.616C17.3931 23.5651 24.1712 23.5323 32.2493 23.5431L46.9368 23.5629L47.4447 23.8348ZM36.1243 43.0629V45.1254H31.9993H27.8743V43.0629V41.0004H31.9993H36.1243V43.0629ZM13.5618 43.3934C15.0189 44.1606 15.0978 44.1698 20.7806 44.2206L25.9993 44.2675V45.3296C25.9993 46.5534 26.0933 46.7965 26.6403 46.9873C27.1881 47.1781 36.8106 47.1781 37.3583 46.9873C37.9053 46.7965 37.9993 46.5534 37.9993 45.3296V44.2675L43.2181 44.2223C48.1997 44.179 48.4737 44.1644 49.2493 43.9021C49.6962 43.751 50.3089 43.4849 50.6109 43.3109C50.9131 43.1369 51.1804 43.0149 51.2052 43.0396C51.2301 43.0644 51.4232 44.1204 51.6343 45.3863C52.1084 48.2276 52.0931 49.2381 51.5596 50.3286C51.1016 51.2649 50.2589 52.1046 49.3102 52.5704L48.5618 52.9379H31.9993H15.4368L14.6896 52.5715C13.7333 52.1028 12.8224 51.1903 12.4087 50.2866C11.9284 49.2376 11.9046 48.2293 12.3012 45.7504C12.7139 43.171 12.7531 42.9783 12.8544 43.0258C12.8997 43.047 13.2181 43.2124 13.5618 43.3934Z" fill="white"/>
</g>
</svg>
