<svg width="64" height="64" viewBox="0 0 64 64" fill="none" xmlns="http://www.w3.org/2000/svg">
<g id="Business center" clip-path="url(#clip0_294_9093)">
<path id="Vector" d="M26.6673 42.6667V40H8.02732L8.00065 50.6667C8.00065 53.6267 10.374 56 13.334 56H50.6673C53.6273 56 56.0006 53.6267 56.0006 50.6667V40H37.334V42.6667H26.6673ZM53.334 18.6667H42.6406V13.3333L37.3073 8H26.6406L21.3073 13.3333V18.6667H10.6673C7.73398 18.6667 5.33398 21.0667 5.33398 24V32C5.33398 34.96 7.70732 37.3333 10.6673 37.3333H26.6673V32H37.334V37.3333H53.334C56.2673 37.3333 58.6673 34.9333 58.6673 32V24C58.6673 21.0667 56.2673 18.6667 53.334 18.6667ZM37.334 18.6667H26.6673V13.3333H37.334V18.6667Z" fill="white"/>
</g>
<defs>
<clipPath id="clip0_294_9093">
<rect width="64" height="64" fill="white"/>
</clipPath>
</defs>
</svg>
