<svg width="64" height="64" viewBox="0 0 64 64" fill="none" xmlns="http://www.w3.org/2000/svg">
<g id="Frame 1430102654">
<path id="free-icon-graph-134655 1 (Traced)" fill-rule="evenodd" clip-rule="evenodd" d="M12.4002 3.62829C12.0352 3.96829 11.9418 4.40729 12.1451 4.82829C12.279 5.10554 16.2047 7.42129 31.7095 16.3688C42.3777 22.5252 51.0683 27.5952 51.022 27.6354C50.9756 27.6757 49.8688 27.8045 48.5626 27.9217C47.2563 28.0388 45.938 28.1685 45.633 28.2099C44.3383 28.3855 44.078 29.6593 45.207 30.2938C45.3346 30.3654 53.83 29.6088 54.8267 29.4369C55.0407 29.4 55.3035 29.2725 55.4107 29.1535C55.912 28.5973 55.873 28.4694 53.8138 23.9084C52.633 21.2929 51.7291 19.4503 51.544 19.281C50.9006 18.6932 49.808 19.1642 49.8411 20.015C49.8505 20.255 50.3748 21.5649 51.056 23.0498C51.715 24.4867 52.2392 25.676 52.221 25.6929C52.2026 25.7098 51.4845 25.3174 50.6251 24.821C49.7657 24.3247 47.4032 22.9618 45.3751 21.7925C43.347 20.6232 36.0345 16.4024 29.1251 12.413C22.2157 8.42354 15.8627 4.75791 15.0072 4.26716C13.331 3.30541 12.8683 3.19204 12.4002 3.62829ZM1.12509 37.6838V58.495L0.810591 58.5739C0.0484658 58.7653 -0.241534 59.7695 0.306966 60.3179L0.613716 60.6248H32.0001H63.3865L63.6932 60.3179C64.0873 59.9239 64.0926 59.3713 63.7065 58.9223C63.46 58.6359 63.2892 58.572 62.644 58.5254L61.8751 58.4698V51.0473V43.6248H55.5001H49.1251V51.0623V58.4998H47.5001H45.8751V46.2498V33.9998H39.5001H33.1251V46.2498V58.4998H31.5001H29.8751V41.9998V25.4998H23.5001H17.1251V41.9998V58.4998H15.5005H13.8758L13.8442 37.7185L13.8126 16.9373L7.46884 16.9049L1.12509 16.8725V37.6838ZM11.7501 38.8123V58.4998H7.50009H3.25009V38.8123V19.1248H7.50009H11.7501V38.8123ZM27.7501 43.0623V58.4998H23.5001H19.2501V43.0623V27.6248H23.5001H27.7501V43.0623ZM43.7501 47.3123V58.4998H39.5001H35.2501V47.3123V36.1248H39.5001H43.7501V47.3123ZM59.7501 52.1248V58.4998H55.5001H51.2501V52.1248V45.7498H55.5001H59.7501V52.1248Z" fill="white"/>
</g>
</svg>
