<svg width="64" height="64" viewBox="0 0 64 64" fill="none" xmlns="http://www.w3.org/2000/svg">
<g id="Frame 2942">
<path id="free-icon-new-email-4627332 1 (Traced)" fill-rule="evenodd" clip-rule="evenodd" d="M12.9795 6.17397C12.1286 6.47947 11.3659 7.28534 11.1216 8.13709C11.051 8.38347 11 10.9011 11 14.1463V19.7316L7.17437 21.6975C5.07025 22.7788 3.19025 23.7968 2.99662 23.9598C2.80287 24.1227 2.4995 24.5471 2.32225 24.9027L2 25.5493L2.00075 40.4935C2.00125 51.0083 2.04225 55.586 2.13937 55.9377C2.32887 56.624 3.3915 57.6785 4.08 57.8635C4.454 57.9638 12.2657 57.9935 32.2675 57.9701C57.8942 57.9401 59.9657 57.9222 60.3201 57.728C60.7986 57.4657 61.4564 56.8052 61.7295 56.3127C61.9197 55.9697 61.9404 54.644 61.9707 40.7555L62.0039 25.5733L61.6831 24.9175C61.5066 24.5568 61.2041 24.1286 61.0107 23.966C60.8175 23.8033 58.9381 22.781 56.8344 21.6938L53.0092 19.7175L52.9734 13.8901C52.9337 7.45784 52.9722 7.76984 52.1121 6.89747C51.2149 5.98734 53.0275 6.06572 32.1875 6.03609C16.9542 6.01447 13.3516 6.04034 12.9795 6.17397ZM50.4179 8.13897C50.5854 8.21534 50.7849 8.41484 50.8612 8.58234C50.9596 8.79847 50.9991 12.1092 50.997 19.9748L50.9941 31.0627L44.9925 35.4143L38.9909 39.766L36.6802 38.12C33.96 36.1825 33.4801 35.961 32 35.961C30.5202 35.961 30.0397 36.1826 27.3252 38.1162L25.02 39.7582L19.0412 35.338L13.0625 30.9178L13.0299 19.9277C13.0071 12.259 13.0381 8.83847 13.1325 8.60909C13.2069 8.42834 13.3904 8.22122 13.5401 8.14884C13.9351 7.95784 49.9992 7.94822 50.4179 8.13897ZM29.9375 12.1997C25.0907 13.2802 21.7714 17.6068 22.0392 22.4945C22.1225 24.0121 22.3462 24.93 22.9547 26.2492C24.1429 28.8251 26.6651 30.9283 29.5 31.707C30.633 32.0181 33.367 32.0181 34.5 31.707C37.983 30.7503 40.7294 28.0028 41.7039 24.5002C42.0181 23.3705 42.0196 20.6397 41.7067 19.5002C40.7611 16.0576 37.9609 13.2402 34.5625 12.3125C33.4757 12.0158 31.0299 11.9562 29.9375 12.1997ZM34.474 14.437C36.8716 15.1945 38.7759 17.1 39.5862 19.553C39.8714 20.4156 39.9194 20.7721 39.9164 22.0002C39.9134 23.2095 39.8605 23.5981 39.5827 24.4475C39.0082 26.2052 37.9551 27.5941 36.417 28.623C35.0272 29.5525 33.7989 29.9122 32 29.9166C30.7665 29.9196 30.4167 29.8721 29.5356 29.5811C27.1019 28.7776 25.2205 26.8917 24.4142 24.4475C24.1314 23.5897 24.0811 23.2212 24.0811 22.0002C24.0811 20.7792 24.1314 20.4107 24.4142 19.553C25.3406 16.7442 27.6062 14.768 30.6336 14.1278C31.5492 13.9342 33.3382 14.0782 34.474 14.437ZM31.3069 16.3071C31.0044 16.6095 31 16.6451 31 18.8071V21.0002H28.8069C26.6449 21.0002 26.6092 21.0046 26.3069 21.3071C26.1134 21.5005 26 21.7567 26 22.0002C26 22.2437 26.1134 22.5 26.3069 22.6933C26.6092 22.9958 26.6449 23.0002 28.8069 23.0002H31V25.1933C31 27.3553 31.0044 27.391 31.3069 27.6933C31.5002 27.8868 31.7565 28.0002 32 28.0002C32.2435 28.0002 32.4998 27.8868 32.6931 27.6933C32.9956 27.391 33 27.3553 33 25.1933V23.0002H35.1931C37.3551 23.0002 37.3908 22.9958 37.6931 22.6933C38.0991 22.2875 38.0991 21.713 37.6931 21.3071C37.3908 21.0046 37.3551 21.0002 35.1931 21.0002H33V18.8071C33 16.6451 32.9956 16.6095 32.6931 16.3071C32.4998 16.1136 32.2435 16.0002 32 16.0002C31.7565 16.0002 31.5002 16.1136 31.3069 16.3071ZM10.972 27.4837L10.9375 29.3578L8.03762 27.2727C6.44263 26.126 5.13487 25.1577 5.13137 25.1211C5.12787 25.0845 6.43275 24.3753 8.03125 23.5453L10.9375 22.0362L10.972 23.823C10.991 24.8057 10.991 26.4531 10.972 27.4837ZM57.9687 24.586C58.536 24.8897 59 25.1608 59 25.1883C59 25.253 53.1557 29.5002 53.067 29.5002C53.0301 29.5002 53 27.8101 53 25.7443V21.9885L54.9687 23.011C56.0516 23.5733 57.4015 24.2821 57.9687 24.586ZM13.8721 34.0627C19.0262 37.844 23.2431 40.9658 23.2429 41.0002C23.2427 41.0346 20.7325 42.8627 17.6646 45.0627C14.5967 47.2627 10.2672 50.37 8.04337 51.9677L4 54.8728V40.8587C4 26.8615 4.00025 26.845 4.2505 27.0162C4.38825 27.1106 8.718 30.2815 13.8721 34.0627ZM60 41.0111V54.8968L59.5172 54.5423C59.2516 54.3472 54.9236 51.2346 49.8992 47.6252C42.8287 42.546 40.7979 41.0291 40.9132 40.9138C41.1577 40.67 59.8042 27.1396 59.9062 27.1321C59.9579 27.1283 60 33.3738 60 41.0111ZM33.2701 38.2831C33.5905 38.4368 39.2874 42.4721 45.9297 47.2502L58.007 55.9377L45.0035 55.9696C37.8515 55.9871 26.1514 55.9871 19.003 55.9696L6.006 55.9377L18.0829 47.2502C24.7251 42.4721 30.391 38.4387 30.6736 38.2871C31.3822 37.9071 32.4831 37.9053 33.2701 38.2831Z" fill="url(#paint0_linear_520_2630)"/>
</g>
<defs>
<linearGradient id="paint0_linear_520_2630" x1="2" y1="6.0293" x2="65.6938" y2="11.036" gradientUnits="userSpaceOnUse">
<stop stop-color="#7370FF"/>
<stop offset="1" stop-color="#DC1F81"/>
</linearGradient>
</defs>
</svg>
