<svg width="64" height="64" viewBox="0 0 64 64" fill="none" xmlns="http://www.w3.org/2000/svg">
<g id="Frame 1430102657">
<path id="free-icon-complexity-11532820 1 (Traced)" fill-rule="evenodd" clip-rule="evenodd" d="M8.31253 2.30055C6.99241 2.71917 5.97928 3.57117 5.40066 4.74942C5.10166 5.3583 5.06253 5.5823 5.06253 6.6878C5.06253 7.7998 5.10066 8.01542 5.40778 8.64092C6.29303 10.4434 8.37053 11.505 10.2782 11.1297C10.7062 11.0455 11.2767 10.8643 11.5459 10.7269C12.3052 10.3395 13.212 9.41505 13.5923 8.64092C13.8994 8.01542 13.9375 7.7998 13.9375 6.6878C13.9375 5.5813 13.8987 5.35892 13.5989 4.7503C13.2264 3.99405 12.5568 3.2438 11.8629 2.80542C10.8738 2.18042 9.36716 1.96617 8.31253 2.30055ZM22.2944 3.87292C20.9158 4.16517 19.497 5.3883 19.0019 6.71142C18.6532 7.64342 18.644 8.96854 18.98 9.85304L19.224 10.495L14.1058 14.9484C11.2908 17.3979 8.81878 19.5439 8.61253 19.7175L8.23741 20.0332L7.64991 19.715C5.42091 18.5079 2.56553 19.4748 1.43166 21.8205C1.12003 22.465 1.07216 22.7109 1.06766 23.6878C1.06328 24.6533 1.11003 24.9142 1.39753 25.5275C1.88291 26.563 2.72591 27.408 3.69491 27.8302L4.50003 28.1809V40.532C4.50003 52.1835 4.48766 52.8873 4.28128 52.9568C3.02178 53.3808 1.93066 54.333 1.40053 55.4708C1.11628 56.0808 1.06641 56.3557 1.06641 57.3128C1.06641 58.267 1.11666 58.5454 1.39703 59.1472C1.85916 60.1388 2.62753 60.9243 3.60703 61.4065C4.35478 61.7747 4.53816 61.8127 5.55991 61.8108C6.51741 61.8092 6.79566 61.7584 7.40453 61.4748C8.54266 60.9445 9.49428 59.8539 9.91891 58.5932C9.98866 58.386 10.5074 58.3754 19.0737 58.4057L28.1544 58.4378L28.3948 59.0628C28.8029 60.1242 28.8063 60.1253 31.5485 60.1253C34.3133 60.1253 34.3197 60.1232 34.7483 59.067L35.029 58.3753H41.6102H48.1914L48.4124 58.9978C48.7315 59.8963 49.7949 60.999 50.7595 61.432C53.1753 62.5162 55.9524 61.3752 56.8705 58.9213C57.217 57.9952 57.2144 56.6235 56.8644 55.6882C56.4974 54.7072 55.4799 53.6395 54.4728 53.1787C53.801 52.8713 53.5339 52.8199 52.625 52.8227C51.7469 52.8253 51.4385 52.8828 50.8478 53.1543C49.6392 53.7098 48.7743 54.6718 48.261 56.0315L48.1313 56.3753H45.1907C43.5733 56.3753 42.25 56.3362 42.25 56.2884C42.25 56.2405 42.8407 55.6022 43.5625 54.8695C44.5378 53.8799 44.875 53.4558 44.875 53.2189C44.875 53.0437 44.6562 52.4243 44.3888 51.8427L43.9025 50.7852L44.2863 49.9865C44.4974 49.5472 44.796 48.828 44.9499 48.3884L45.2297 47.5892L46.3335 47.1665C46.9408 46.9342 47.5359 46.6268 47.6563 46.4833C47.8448 46.2587 47.875 45.9439 47.875 44.2059V42.1892L51.9538 38.109L56.0324 34.0289L56.6737 34.3225C58.9084 35.3455 61.5823 34.2742 62.6502 31.9278C62.8725 31.4392 62.9309 31.081 62.9338 30.1852C62.9372 29.1594 62.9004 28.9823 62.5274 28.2245C62.0353 27.2248 61.1665 26.395 60.1872 25.989L59.5 25.7043V19.1942V12.6839L60.1225 12.4629C61.021 12.1438 62.1238 11.0804 62.5568 10.1158C63.6409 7.70005 62.4999 4.92292 60.046 4.0048C59.1199 3.6583 57.7483 3.66092 56.8129 4.01092C55.8499 4.37117 54.7587 5.40042 54.3433 6.34004C53.282 8.74104 54.2594 11.2574 56.6963 12.3978L57.5 12.7739V19.2328V25.6917L56.8837 25.9105C54.4932 26.7595 53.2539 29.6605 54.3028 31.9518L54.5964 32.5929L50.6253 36.5625L46.6543 40.5322L46.0459 40.3087C45.7113 40.1858 45.376 40.0239 45.3009 39.949C45.2257 39.874 45.0118 39.3909 44.8254 38.8753C44.639 38.3597 44.3567 37.6885 44.1979 37.3838L43.9093 36.8298L44.3922 35.7419C44.6578 35.1435 44.875 34.495 44.875 34.3008C44.875 34.0137 44.5528 33.6254 43.1514 32.2239C41.1548 30.2274 41.2005 30.2444 39.6789 30.9378C39.1508 31.1784 38.6399 31.3753 38.5434 31.3753C38.4469 31.3753 38.046 31.2144 37.6527 31.0177C37.2594 30.821 36.6282 30.5613 36.25 30.4404C35.8719 30.3197 35.4997 30.1572 35.4227 30.0793C35.3458 30.0014 35.1247 29.5159 34.9313 29.0003C34.3413 27.4273 34.5053 27.5003 31.5602 27.5003C28.6157 27.5003 28.8333 27.4024 28.2063 29.0079C27.9842 29.5767 27.7204 30.0863 27.62 30.1404C27.5197 30.1947 26.9313 30.4424 26.3125 30.691C25.6938 30.9397 25.038 31.2057 24.8553 31.2823C24.5693 31.402 24.3804 31.3572 23.5009 30.9609C22.0873 30.3238 21.9278 30.3425 20.9449 31.262L20.1307 32.0238L18.284 30.9629C17.2685 30.3795 15.3969 29.2992 14.125 28.5622C12.8532 27.8252 11.316 26.9385 10.7093 26.5918C9.76353 26.0513 9.61678 25.9239 9.68116 25.6995C10.2495 23.7182 10.2498 23.562 9.68866 21.7979C9.60066 21.521 9.3434 21.7554 18.3623 13.8974L20.5369 12.0027L20.9248 12.2404C21.138 12.3712 21.646 12.5744 22.0535 12.692C24.0908 13.2802 26.3102 12.2542 27.3357 10.2503C27.6487 9.6388 27.6875 9.43142 27.6875 8.37342C27.6875 7.28205 27.6538 7.11529 27.2774 6.3503C26.3685 4.50255 24.2632 3.4558 22.2944 3.87292ZM10.9307 4.58917C12.4084 5.61529 12.3474 7.8623 10.816 8.81067C9.12266 9.85942 7.00003 8.6648 7.00003 6.66317C7.00003 5.55305 7.69466 4.57105 8.71066 4.24517C9.34153 4.04267 10.3742 4.20267 10.9307 4.58917ZM24.5115 6.1468C24.7783 6.29667 25.152 6.64367 25.342 6.91792C25.6418 7.3503 25.6875 7.53655 25.6875 8.32255C25.6875 9.12817 25.6459 9.28767 25.3125 9.75967C23.8639 11.8105 20.7322 10.8122 20.7322 8.29942C20.7322 6.35179 22.7904 5.17942 24.5115 6.1468ZM59.6823 6.03467C59.9545 6.1888 60.3483 6.55855 60.5573 6.8563C60.8912 7.3318 60.9375 7.50192 60.937 8.25142C60.9367 8.99767 60.8894 9.17205 60.562 9.63692C60.0107 10.4198 59.2562 10.7814 58.2945 10.7237C57.7115 10.6888 57.4082 10.5957 57.0353 10.3373C55.5463 9.30542 55.5767 7.08042 57.0928 6.1188C57.8495 5.63892 58.9222 5.60405 59.6823 6.03467ZM24.8433 16.8782C20.6374 17.9398 20.0823 23.566 24 25.4247C24.7109 25.7618 24.9455 25.8099 25.875 25.8087C26.7589 25.8077 27.0568 25.7519 27.6469 25.4775C28.5963 25.0362 29.4379 24.2354 29.9177 23.3174C30.2834 22.6174 30.312 22.4722 30.3123 21.3128C30.3125 20.1287 30.2902 20.0215 29.8888 19.2813C29.083 17.7957 27.74 16.9054 26.1613 16.8107C25.6945 16.7827 25.1014 16.813 24.8433 16.8782ZM26.9839 19.0782C27.955 19.5622 28.3125 20.1634 28.3125 21.3128C28.3125 22.4828 27.9544 23.0708 26.9394 23.5674C26.3482 23.8565 26.141 23.8972 25.59 23.8319C22.9177 23.5154 22.519 19.7902 25.0625 18.9012C25.6962 18.6797 26.2949 18.7348 26.9839 19.0782ZM6.77403 21.5142C7.73741 22.0023 8.29503 23.2854 8.00703 24.3512C7.69116 25.52 6.47941 26.3402 5.24353 26.2214C3.09078 26.0145 2.24066 23.2407 3.89591 21.8239C4.73491 21.1058 5.75216 20.9963 6.77403 21.5142ZM13.2952 30.3919C16.0548 31.9824 18.3842 33.3403 18.4717 33.4095C18.5992 33.5105 18.5929 33.5932 18.4404 33.826C18.1624 34.2503 18.2117 34.5677 18.738 35.7439L19.2108 36.8L18.7985 37.6924C18.5718 38.1832 18.2853 38.9004 18.1619 39.2863L17.9375 39.9878L16.875 40.385C15.1695 41.0228 15.25 40.8558 15.25 43.7583C15.25 45.9227 15.2767 46.2543 15.4688 46.4833C15.5892 46.6267 16.1903 46.9334 16.8049 47.165L17.9223 47.586L18.2025 48.417C18.3567 48.8742 18.6534 49.5837 18.8618 49.9938L19.2408 50.7395L18.7454 51.8555C18.4729 52.4694 18.25 53.0989 18.25 53.2547C18.25 53.4462 18.6745 53.9684 19.5625 54.8695C20.2844 55.6022 20.875 56.2405 20.875 56.2884C20.875 56.3362 18.4407 56.3753 15.4654 56.3753H10.0557L9.69578 55.5492C9.22491 54.4683 8.40703 53.6504 7.32616 53.1795L6.50003 52.8197V40.5354V28.2512L7.28128 27.8864C7.71103 27.6859 8.11103 27.5169 8.17016 27.511C8.22941 27.5052 10.5357 28.8015 13.2952 30.3919ZM59.3478 27.8194C60.7037 28.3858 61.3468 29.9125 60.7669 31.1889C60.3725 32.0572 59.3493 32.7469 58.452 32.7495C57.208 32.7533 55.872 31.4173 55.8758 30.1733C55.8808 28.4605 57.7878 27.1678 59.3478 27.8194ZM33.3848 30.5694C33.8204 31.7239 33.9445 31.8433 35 32.1233C35.3094 32.2054 36.222 32.5812 37.0282 32.9585L38.4938 33.6445L39.6104 33.1518L40.7269 32.659L41.676 33.6137C42.1979 34.1388 42.625 34.6124 42.625 34.6663C42.625 34.7202 42.4173 35.2425 42.1634 35.8272L41.7017 36.8902L42.245 37.9764C42.5439 38.5739 42.9363 39.5128 43.117 40.0628C43.2978 40.6128 43.5044 41.165 43.5763 41.29C43.6482 41.4149 44.1807 41.7082 44.7598 41.9414L45.8125 42.3658L45.8475 43.7899L45.8827 45.214L44.9617 45.5499C43.664 46.0232 43.564 46.1172 43.2548 47.1547C43.106 47.6542 42.699 48.6477 42.3505 49.3625L41.7169 50.6622L42.1233 51.6125C42.7382 53.0507 42.7569 52.9457 41.6993 53.9922L40.76 54.9215L39.6995 54.4609C39.1162 54.2075 38.5589 54.0003 38.461 54.0003C38.3632 54.0003 37.8115 54.2408 37.2353 54.5347C36.659 54.8287 35.6942 55.2262 35.0912 55.4182C33.8665 55.808 33.8395 55.8352 33.3084 57.219L32.9605 58.1253H31.5595H30.1585L29.824 57.208C29.3465 55.8988 29.2627 55.8132 28.0932 55.4384C27.5263 55.2568 26.5684 54.8589 25.9645 54.5543C25.3605 54.2495 24.7809 54.0003 24.6763 54.0003C24.5717 54.0003 24.0089 54.2075 23.4255 54.4609L22.365 54.9215L21.4325 53.9953C20.9197 53.4859 20.5 53.0043 20.5 52.9253C20.5 52.8462 20.6969 52.3495 20.9375 51.8214C21.1782 51.2934 21.375 50.7845 21.375 50.6907C21.375 50.5968 21.1253 50.0423 20.8199 49.4587C20.5147 48.875 20.1178 47.9154 19.938 47.3262C19.7364 46.6652 19.5147 46.1872 19.3589 46.078C19.2202 45.9809 18.6889 45.7419 18.1783 45.5469L17.25 45.1925V43.793V42.3934L18.2813 41.9969C18.8484 41.7789 19.3768 41.5479 19.4554 41.4838C19.5339 41.4195 19.7507 40.8767 19.9372 40.2774C20.1237 39.6782 20.5234 38.7048 20.8257 38.1145C21.1278 37.5243 21.375 36.9727 21.375 36.8888C21.375 36.805 21.1678 36.259 20.9143 35.6757L20.4537 34.6149L21.4259 33.637L22.3982 32.659L23.5147 33.1518L24.6313 33.6445L26.0969 32.961C26.903 32.585 27.9 32.1817 28.3125 32.0645C28.725 31.9474 29.1249 31.8004 29.2012 31.7378C29.2774 31.6752 29.5245 31.1462 29.7503 30.5622L30.1608 29.5003H31.571H32.9812L33.3848 30.5694ZM30.595 35.5112C28.718 35.7188 27.1094 36.512 25.6793 37.9347C24.5027 39.1053 23.7745 40.4047 23.4315 41.9465C23.1454 43.2328 23.2288 45.2373 23.6157 46.3753C24.4678 48.8813 26.4008 50.8174 28.9388 51.7069C29.8339 52.0207 30.1062 52.0572 31.5625 52.0587C33.0623 52.0602 33.2707 52.0305 34.2648 51.6759C36.774 50.7804 38.5858 48.9708 39.467 46.4797C39.8953 45.269 40.006 43.0897 39.7013 41.872C39.0985 39.4635 37.4244 37.3855 35.2417 36.3363C33.6583 35.5752 32.2602 35.3269 30.595 35.5112ZM33.858 37.8683C37.5574 39.3279 39.0428 43.8834 36.8994 47.1968C34.686 50.6184 29.962 51.1328 27.1234 48.2614C26.6755 47.8084 26.1572 47.1523 25.9713 46.8034C24.9679 44.9202 25.016 42.4498 26.0923 40.5918C27.0092 39.009 28.9805 37.694 30.6934 37.5225C31.8294 37.4088 33.0243 37.5394 33.858 37.8683ZM6.29803 54.904C7.23091 55.1828 8.12716 56.372 8.12428 57.3273C8.12166 58.2245 7.43191 59.2478 6.56366 59.6422C4.51366 60.5734 2.29328 58.3512 3.23703 56.3128C3.53166 55.6764 4.08853 55.153 4.70466 54.9334C5.31241 54.7168 5.65041 54.7105 6.29803 54.904ZM53.8819 55.1288C54.6527 55.522 55.1255 56.3515 55.123 57.306C55.1204 58.2449 54.7834 58.8957 54.0227 59.4303C53.566 59.7513 53.3683 59.8085 52.7113 59.8105C51.2398 59.8148 50.2524 58.9273 50.1498 57.5079C50.0008 55.4487 52.0048 54.1712 53.8819 55.1288ZM24.8125 56.2503C24.8572 56.3224 24.7413 56.3745 24.5387 56.3734C24.266 56.3719 24.2294 56.3444 24.375 56.2503C24.6152 56.095 24.7167 56.095 24.8125 56.2503ZM38.75 56.2503C38.8957 56.3444 38.859 56.3719 38.5864 56.3734C38.3838 56.3745 38.2679 56.3224 38.3125 56.2503C38.4084 56.095 38.5099 56.095 38.75 56.2503Z" fill="white"/>
</g>
</svg>
