<svg width="24" height="25" viewBox="0 0 24 25" fill="none" xmlns="http://www.w3.org/2000/svg">
<path d="M19.1597 3.87874C16.6365 1.35552 12.5276 1.35552 10.007 3.87874L3.01596 10.8645C2.97042 10.91 2.94631 10.9716 2.94631 11.0359C2.94631 11.1002 2.97042 11.1618 3.01596 11.2073L4.00435 12.1957C4.04953 12.2407 4.11069 12.2659 4.17444 12.2659C4.23819 12.2659 4.29935 12.2407 4.34453 12.1957L11.3356 5.20999C12.2035 4.34213 13.3579 3.86535 14.5847 3.86535C15.8115 3.86535 16.966 4.34213 17.8311 5.20999C18.699 6.07785 19.1758 7.23231 19.1758 8.45642C19.1758 9.6832 18.699 10.835 17.8311 11.7028L10.7061 18.8252L9.55167 19.9796C8.47221 21.0591 6.71774 21.0591 5.63828 19.9796C5.11596 19.4573 4.82935 18.7636 4.82935 18.0243C4.82935 17.285 5.11596 16.5912 5.63828 16.0689L12.707 9.00285C12.8865 8.82606 13.1222 8.72695 13.374 8.72695H13.3767C13.6285 8.72695 13.8615 8.82606 14.0383 9.00285C14.2177 9.18231 14.3142 9.41802 14.3142 9.66981C14.3142 9.91892 14.2151 10.1546 14.0383 10.3314L8.2606 16.1037C8.21506 16.1493 8.19096 16.2109 8.19096 16.2752C8.19096 16.3395 8.21506 16.4011 8.2606 16.4466L9.24899 17.435C9.29417 17.48 9.35533 17.5052 9.41908 17.5052C9.48283 17.5052 9.54399 17.48 9.58917 17.435L15.3642 11.66C15.8972 11.127 16.1892 10.4198 16.1892 9.66713C16.1892 8.91445 15.8945 8.20463 15.3642 7.67427C14.2633 6.57338 12.474 6.57606 11.3731 7.67427L10.6874 8.36267L4.30703 14.7403C3.87399 15.1708 3.53072 15.683 3.29714 16.2472C3.06356 16.8114 2.94431 17.4163 2.94631 18.027C2.94631 19.2671 3.43114 20.4323 4.30703 21.3082C5.21506 22.2136 6.40435 22.6662 7.59364 22.6662C8.78292 22.6662 9.97221 22.2136 10.8776 21.3082L19.1597 13.0314C20.3785 11.81 21.0535 10.1841 21.0535 8.45642C21.0561 6.72606 20.3811 5.10017 19.1597 3.87874Z" fill="#5865F2"/>
<path d="M19.1597 3.87874C16.6365 1.35552 12.5276 1.35552 10.007 3.87874L3.01596 10.8645C2.97042 10.91 2.94631 10.9716 2.94631 11.0359C2.94631 11.1002 2.97042 11.1618 3.01596 11.2073L4.00435 12.1957C4.04953 12.2407 4.11069 12.2659 4.17444 12.2659C4.23819 12.2659 4.29935 12.2407 4.34453 12.1957L11.3356 5.20999C12.2035 4.34213 13.3579 3.86535 14.5847 3.86535C15.8115 3.86535 16.966 4.34213 17.8311 5.20999C18.699 6.07785 19.1758 7.23231 19.1758 8.45642C19.1758 9.6832 18.699 10.835 17.8311 11.7028L10.7061 18.8252L9.55167 19.9796C8.47221 21.0591 6.71774 21.0591 5.63828 19.9796C5.11596 19.4573 4.82935 18.7636 4.82935 18.0243C4.82935 17.285 5.11596 16.5912 5.63828 16.0689L12.707 9.00285C12.8865 8.82606 13.1222 8.72695 13.374 8.72695H13.3767C13.6285 8.72695 13.8615 8.82606 14.0383 9.00285C14.2177 9.18231 14.3142 9.41802 14.3142 9.66981C14.3142 9.91892 14.2151 10.1546 14.0383 10.3314L8.2606 16.1037C8.21506 16.1493 8.19096 16.2109 8.19096 16.2752C8.19096 16.3395 8.21506 16.4011 8.2606 16.4466L9.24899 17.435C9.29417 17.48 9.35533 17.5052 9.41908 17.5052C9.48283 17.5052 9.54399 17.48 9.58917 17.435L15.3642 11.66C15.8972 11.127 16.1892 10.4198 16.1892 9.66713C16.1892 8.91445 15.8945 8.20463 15.3642 7.67427C14.2633 6.57338 12.474 6.57606 11.3731 7.67427L10.6874 8.36267L4.30703 14.7403C3.87399 15.1708 3.53072 15.683 3.29714 16.2472C3.06356 16.8114 2.94431 17.4163 2.94631 18.027C2.94631 19.2671 3.43114 20.4323 4.30703 21.3082C5.21506 22.2136 6.40435 22.6662 7.59364 22.6662C8.78292 22.6662 9.97221 22.2136 10.8776 21.3082L19.1597 13.0314C20.3785 11.81 21.0535 10.1841 21.0535 8.45642C21.0561 6.72606 20.3811 5.10017 19.1597 3.87874Z" fill="url(#paint0_linear_2175_1125)"/>
<defs>
<linearGradient id="paint0_linear_2175_1125" x1="2.94629" y1="12.3263" x2="21.0535" y2="12.3263" gradientUnits="userSpaceOnUse">
<stop stop-color="#8F4FF1"/>
<stop offset="1" stop-color="#3E42B2"/>
</linearGradient>
</defs>
</svg>
