<svg width="64" height="64" viewBox="0 0 64 64" fill="none" xmlns="http://www.w3.org/2000/svg">
<g id="Frame 28">
<path id="free-icon-user-minus-16512404 1 (Traced)" fill-rule="evenodd" clip-rule="evenodd" d="M24.4774 4.18666C21.8036 4.63666 19.4513 5.83041 17.4474 7.75428C14.7608 10.3334 13.3748 13.6084 13.3748 17.3772C13.3748 21.7594 15.581 25.9464 19.1468 28.3314L20.0751 28.9523L19.0686 29.3073C17.5853 29.8305 14.8556 31.2575 13.4998 32.2187C11.9621 33.3087 9.28852 35.9828 8.24814 37.4713C5.71364 41.0972 4.32627 45.0055 4.04839 49.3022L3.96289 50.6245H5.29389C6.27514 50.6245 6.62477 50.5835 6.62489 50.4683C6.62539 49.7099 6.93989 47.3094 7.17764 46.2495C8.85527 38.7714 14.7074 32.9178 22.2498 31.1737C23.1206 30.9723 24.2773 30.8282 25.6873 30.7452C28.329 30.5899 29.4115 30.436 30.6873 30.0347C32.6193 29.4268 34.2875 28.4317 35.828 26.9684C40.6209 22.4155 41.3538 15.242 37.592 9.70103C36.9073 8.69253 35.2599 7.04728 34.2665 6.38003C31.3261 4.40491 27.8323 3.62216 24.4774 4.18666ZM29.2134 7.00191C33.0454 7.89991 36.069 10.938 37.0223 14.8484C37.3569 16.2209 37.383 18.4084 37.0796 19.6657C36.1236 23.629 33.1333 26.673 29.1873 27.6997C27.977 28.0145 25.2648 28.0154 24.1248 27.7014C22.045 27.1284 20.4298 26.1707 18.9745 24.6475C15.0564 20.5464 15.0074 14.2795 18.8608 10.103C21.518 7.22303 25.3099 6.08716 29.2134 7.00191ZM43.6371 30.7643C41.4963 31.0125 38.997 31.9423 37.1243 33.1874C32.8009 36.0615 30.1931 41.5703 30.7421 46.6694C31.111 50.0957 32.3725 52.896 34.6248 55.2884C37.4068 58.2435 40.7269 59.7748 44.7498 59.9584C53.2905 60.348 60.4576 53.1 59.9619 44.5747C59.7335 40.6472 58.1859 37.3522 55.2886 34.6245C52.931 32.4049 50.1335 31.1262 46.8294 30.7578C45.4896 30.6084 44.9724 30.6094 43.6371 30.7643ZM48.3995 33.7282C50.3141 34.2412 52.0543 35.2179 53.5278 36.6065C57.8064 40.639 58.5561 47.0672 55.3158 51.9372C51.0399 58.3633 42.0161 59.1668 36.6683 53.5975C33.5478 50.3479 32.5325 45.5338 34.0641 41.2495C35.4546 37.3602 38.8613 34.4265 42.9998 33.5544C44.2046 33.3005 47.1583 33.3955 48.3995 33.7282ZM38.6248 45.312V46.6245H45.3123H51.9998V45.312V43.9995H45.3123H38.6248V45.312Z" fill="white"/>
</g>
</svg>
