<svg width="64" height="64" viewBox="0 0 65 64" fill="none" xmlns="http://www.w3.org/2000/svg">
<g id="Person add alt 1" clip-path="url(#clip0_395_3654)">
<g id="Group">
<path id="Vector" d="M35.166 21.3337C35.166 15.4403 30.3927 10.667 24.4993 10.667C18.606 10.667 13.8327 15.4403 13.8327 21.3337C13.8327 27.227 18.606 32.0003 24.4993 32.0003C30.3927 32.0003 35.166 27.227 35.166 21.3337ZM40.4994 26.667V32.0003H48.4994V40.0003H53.8327V32.0003H61.8327V26.667H53.8327V18.667H48.4994V26.667H40.4994ZM3.16602 48.0003V53.3337H45.8327V48.0003C45.8327 40.907 31.6194 37.3337 24.4993 37.3337C17.3793 37.3337 3.16602 40.907 3.16602 48.0003Z" fill="white"/>
</g>
</g>
<defs>
<clipPath id="clip0_395_3654">
<rect width="64" height="64" fill="white" transform="translate(0.5)"/>
</clipPath>
</defs>
</svg>
