<svg width="24" height="25" viewBox="0 0 24 25" fill="none" xmlns="http://www.w3.org/2000/svg">
<g clip-path="url(#clip0_2175_1130)">
<path d="M23.2348 11.9759L0.828561 0.741926C0.737489 0.69639 0.633025 0.685676 0.533918 0.709783C0.423923 0.736975 0.329185 0.806645 0.270448 0.903537C0.21171 1.00043 0.193759 1.11665 0.220525 1.22675L2.52945 10.6607C2.56428 10.8026 2.66874 10.9178 2.80803 10.9634L6.76428 12.3214L2.8107 13.6794C2.67142 13.7276 2.56695 13.8401 2.53481 13.9821L0.220525 23.4294C0.196418 23.5285 0.207132 23.633 0.252668 23.7214C0.357132 23.933 0.614275 24.0187 0.828561 23.9142L23.2348 12.7446C23.3178 12.7044 23.3848 12.6348 23.4277 12.5544C23.5321 12.3401 23.4464 12.083 23.2348 11.9759ZM2.8616 20.7455L4.20892 15.2384L12.1161 12.525C12.1777 12.5035 12.2286 12.4553 12.25 12.391C12.2875 12.2785 12.2286 12.158 12.1161 12.1178L4.20892 9.4071L2.86695 3.92139L19.6884 12.3562L2.8616 20.7455Z" fill="#5865F2"/>
<path d="M23.2348 11.9759L0.828561 0.741926C0.737489 0.69639 0.633025 0.685676 0.533918 0.709783C0.423923 0.736975 0.329185 0.806645 0.270448 0.903537C0.21171 1.00043 0.193759 1.11665 0.220525 1.22675L2.52945 10.6607C2.56428 10.8026 2.66874 10.9178 2.80803 10.9634L6.76428 12.3214L2.8107 13.6794C2.67142 13.7276 2.56695 13.8401 2.53481 13.9821L0.220525 23.4294C0.196418 23.5285 0.207132 23.633 0.252668 23.7214C0.357132 23.933 0.614275 24.0187 0.828561 23.9142L23.2348 12.7446C23.3178 12.7044 23.3848 12.6348 23.4277 12.5544C23.5321 12.3401 23.4464 12.083 23.2348 11.9759ZM2.8616 20.7455L4.20892 15.2384L12.1161 12.525C12.1777 12.5035 12.2286 12.4553 12.25 12.391C12.2875 12.2785 12.2286 12.158 12.1161 12.1178L4.20892 9.4071L2.86695 3.92139L19.6884 12.3562L2.8616 20.7455Z" fill="url(#paint0_linear_2175_1130)"/>
</g>
<defs>
<linearGradient id="paint0_linear_2175_1130" x1="0.208008" y1="12.328" x2="23.4721" y2="12.328" gradientUnits="userSpaceOnUse">
<stop stop-color="#8F4FF1"/>
<stop offset="1" stop-color="#3E42B2"/>
</linearGradient>
<clipPath id="clip0_2175_1130">
<rect width="24" height="24" fill="white" transform="translate(0 0.322266)"/>
</clipPath>
</defs>
</svg>
