<svg width="64" height="64" viewBox="0 0 64 64" fill="none" xmlns="http://www.w3.org/2000/svg">
<g id="Frame 30">
<path id="free-icon-code-optimisation-3891118 1 (Traced)" fill-rule="evenodd" clip-rule="evenodd" d="M0.556875 2.93187L0.25 3.23863V32V60.7614L0.556875 61.0681L0.863625 61.375H32H63.1364L63.4431 61.0681L63.75 60.7614V32V3.23863L63.4431 2.93187L63.1364 2.625H32H0.863625L0.556875 2.93187ZM61.7212 7.28125L61.7551 9.875H32.0025H2.25V7.33337C2.25 5.93537 2.28763 4.754 2.33363 4.70813C2.37963 4.66213 15.753 4.63863 32.0524 4.656L61.6875 4.6875L61.7212 7.28125ZM5.80688 6.68188C5.61338 6.87525 5.5 7.1315 5.5 7.375C5.5 7.6185 5.61338 7.87475 5.80688 8.06812C6.09113 8.3525 6.20412 8.375 7.3475 8.375C8.47563 8.375 8.60475 8.35025 8.85325 8.08575C9.24962 7.66375 9.22213 6.9695 8.79562 6.63413C8.51538 6.41363 8.29075 6.375 7.29 6.375C6.20775 6.375 6.08913 6.3995 5.80688 6.68188ZM11.0569 6.68188C10.8634 6.87525 10.75 7.1315 10.75 7.375C10.75 7.6185 10.8634 7.87475 11.0569 8.06812C11.3415 8.35287 11.452 8.37475 12.5881 8.371C13.9089 8.36675 14.151 8.27675 14.3666 7.70962C14.5129 7.32475 14.4395 7.0505 14.0846 6.65625C13.8545 6.40062 13.7188 6.375 12.5975 6.375C11.4541 6.375 11.3411 6.3975 11.0569 6.68188ZM16.4001 6.6285C16.2505 6.76788 16.0946 7.01487 16.0539 7.1775C15.9676 7.52075 16.2721 8.18375 16.5681 8.29737C16.8899 8.42075 18.9935 8.38725 19.2411 8.25475C19.6217 8.051 19.8071 7.43975 19.623 6.99525C19.3997 6.45625 19.1669 6.375 17.8442 6.375C16.8396 6.375 16.6333 6.41125 16.4001 6.6285ZM61.7191 35.6562L61.6875 59.3125H32H2.3125L2.28087 35.6562L2.24938 12H32H61.7506L61.7191 35.6562ZM28.7917 13.7986C28.4571 14.0865 28.4351 14.181 28.1896 16.3853L27.9349 18.673L26.8113 19.068C26.1931 19.2853 25.2811 19.6683 24.7844 19.919C24.2876 20.1699 23.8306 20.375 23.7686 20.375C23.7068 20.375 22.876 19.751 21.9228 18.9883C20.9695 18.2255 20.0872 17.5468 19.9624 17.4799C19.4563 17.209 19.0569 17.4965 16.834 19.7319C14.8018 21.7756 14.625 21.9889 14.625 22.3983C14.625 22.7793 14.8404 23.1126 16.1226 24.7164L17.6203 26.5894L17.242 27.2876C17.034 27.6717 16.6456 28.5642 16.379 29.271C16.1122 29.9779 15.8475 30.5693 15.7907 30.5854C15.734 30.6014 14.6565 30.7297 13.3965 30.8705C11.0284 31.1353 10.7193 31.2153 10.5029 31.6196C10.4255 31.7642 10.375 33.093 10.375 34.9847C10.375 39.0389 10.0919 38.6609 13.4008 39.0236L15.8639 39.2936L16.1304 40.178C16.277 40.6645 16.617 41.5344 16.886 42.111C17.155 42.6878 17.3748 43.194 17.3746 43.236C17.3744 43.2781 16.698 44.1562 15.8717 45.1875C14.3489 47.088 14.1666 47.4019 14.2937 47.9062C14.3327 48.0609 15.369 49.186 16.5965 50.4062C18.5181 52.3167 18.8818 52.625 19.2127 52.625C19.5175 52.625 19.9973 52.3043 21.5249 51.0789L23.4524 49.5327L24.32 50.0153C24.7971 50.2806 25.6798 50.6747 26.2812 50.891C26.8829 51.1073 27.3774 51.2906 27.3803 51.2984C27.3831 51.3061 27.5159 52.428 27.6751 53.7914C27.9266 55.9432 28.0005 56.3061 28.2356 56.5414C28.4972 56.8032 28.6156 56.8138 31.6944 56.8498L34.8821 56.8871L35.2326 56.5366C35.5676 56.2016 35.5931 56.089 35.8145 53.9696C35.9417 52.7504 36.0777 51.7057 36.1167 51.648C36.1556 51.5904 36.6825 51.3901 37.2874 51.2031C37.8924 51.0161 38.8125 50.6694 39.3321 50.4325C39.8518 50.1957 40.3413 50.0402 40.4198 50.0872C40.4982 50.1341 41.2375 50.7145 42.0625 51.3769C44.0356 52.9611 44.162 53.0391 44.5984 52.9434C44.8429 52.8896 45.66 52.1576 47.166 50.6431C49.901 47.8927 49.8431 48.1108 48.3382 46.2319C47.7681 45.52 47.148 44.7335 46.9603 44.4841L46.6188 44.0308L47.1152 43.1091C47.3882 42.6022 47.8172 41.6531 48.0685 41C48.3198 40.3469 48.5407 39.796 48.5596 39.7759C48.5785 39.7557 49.562 39.6286 50.745 39.4934C52.9764 39.2384 53.2826 39.1562 53.4971 38.7554C53.5745 38.6107 53.625 37.282 53.625 35.3903C53.625 31.4326 53.7811 31.7066 51.375 31.4409C48.7986 31.1565 48.625 31.1252 48.625 30.9457C48.625 30.6216 47.9767 28.8054 47.4779 27.7315L46.9688 26.6357L48.2998 24.9741C49.6546 23.2826 49.8317 22.967 49.7062 22.4688C49.6672 22.3141 48.631 21.189 47.4035 19.9688C45.486 18.0625 45.1179 17.75 44.7889 17.75C44.4891 17.75 44.0331 18.0484 42.6875 19.125C41.7422 19.8813 40.9529 20.5 40.9331 20.5C40.9134 20.5 40.372 20.2466 39.7299 19.9369C39.0879 19.6271 38.1125 19.2189 37.5625 19.0295L36.5625 18.6852L36.2974 16.3813C35.9369 13.2496 36.2886 13.5 32.25 13.5C29.1501 13.5 29.1378 13.5011 28.7917 13.7986ZM34.1796 15.9062C34.2124 16.061 34.33 17.0312 34.441 18.0625C34.6789 20.2712 34.7301 20.3589 35.9746 20.687C37.0924 20.9816 38.7768 21.6751 39.63 22.1919C40.5713 22.7619 40.9435 22.8902 41.2816 22.7617C41.5284 22.6679 42.1056 22.2284 44.1945 20.5436L44.7014 20.1348L46.0429 21.4802L47.3843 22.8259L46.0774 24.4695C45.3586 25.3735 44.733 26.2318 44.687 26.3766C44.6276 26.5637 44.8416 27.1181 45.4251 28.2887C45.966 29.374 46.3706 30.401 46.6092 31.2938C46.8085 32.0398 47.0575 32.7361 47.1625 32.8411C47.2924 32.971 47.9674 33.1055 49.2705 33.2612C50.3249 33.3872 51.286 33.4925 51.4062 33.4953C51.605 33.4995 51.625 33.6774 51.625 35.4375C51.625 37.362 51.6231 37.375 51.3438 37.3797C51.189 37.3825 50.1994 37.4878 49.1444 37.6139C47.6334 37.7945 47.1784 37.893 47.0004 38.0779C46.8762 38.2069 46.6306 38.7906 46.4548 39.375C46.154 40.3744 45.4923 41.8177 44.6256 43.3645C44.3754 43.811 44.2735 44.1301 44.3264 44.302C44.3704 44.4452 44.9425 45.2375 45.5978 46.0625C46.253 46.8875 46.8463 47.6362 46.9161 47.7262C47.0115 47.8494 46.7204 48.2139 45.7425 49.195C45.0273 49.9128 44.3973 50.5 44.3426 50.5C44.288 50.5 43.4718 49.8812 42.5288 49.125C41.2164 48.0725 40.7277 47.75 40.4451 47.75C40.2421 47.75 39.5949 47.9975 39.0067 48.3C38.0789 48.7772 36.431 49.3589 35.0127 49.7095C34.2874 49.8889 34.1649 50.207 33.9132 52.5625L33.6864 54.6875L31.7839 54.722C29.8931 54.7562 29.881 54.7547 29.8201 54.472C29.7865 54.3155 29.6661 53.2875 29.5526 52.1875C29.4388 51.0831 29.2706 50.0664 29.1772 49.917C29.066 49.7388 28.655 49.5322 27.9729 49.3119C26.744 48.9147 25.3895 48.3037 24.3836 47.6927C23.9827 47.4492 23.519 47.25 23.353 47.25C23.0836 47.25 22.1056 47.9609 19.8055 49.8286L19.2986 50.2402L17.9559 48.8934L16.6131 47.5465L18.1191 45.6631C19.3094 44.1742 19.625 43.699 19.625 43.3949C19.625 43.1834 19.37 42.5157 19.0583 41.9114C18.7465 41.307 18.319 40.25 18.1081 39.5625C17.5715 37.8131 17.4953 37.6312 17.2406 37.495C17.0452 37.3904 13.1945 36.8771 12.5938 36.8756C12.3949 36.875 12.375 36.6992 12.375 34.9375C12.375 33.2969 12.4037 33 12.5629 33C12.6663 33 13.749 32.8859 14.9691 32.7464C16.7677 32.5409 17.2329 32.4475 17.4271 32.2534C17.559 32.1215 17.7987 31.5466 17.9601 30.9756C18.1214 30.4046 18.6182 29.2052 19.0641 28.3102C19.5101 27.4154 19.875 26.5635 19.875 26.4171C19.875 26.2709 19.4096 25.5688 18.8407 24.8569C18.272 24.145 17.6166 23.3188 17.3846 23.0209L16.9626 22.4792L18.2604 21.1771C18.974 20.461 19.604 19.875 19.6602 19.875C19.7164 19.875 20.4486 20.4276 21.2874 21.1031C22.1262 21.7785 22.9667 22.4316 23.1554 22.5544C23.5834 22.833 23.9415 22.7542 24.9048 22.1693C25.8043 21.6231 26.8709 21.1803 28.3013 20.7594C29.8001 20.3182 29.8151 20.2939 30.0681 17.875C30.1796 16.8094 30.2925 15.8673 30.319 15.7812C30.3547 15.6654 30.8515 15.625 32.2438 15.625C34.0888 15.625 34.1213 15.6298 34.1796 15.9062ZM30.1677 23.5515C28.4415 23.881 26.8549 24.5559 25.4298 25.5666C24.2858 26.378 22.7755 28.0481 22.0915 29.2581C18.3046 35.9575 21.7504 44.2526 29.2139 46.4038C30.0471 46.6439 30.485 46.6844 32.25 46.6844C34.015 46.6844 34.4529 46.6439 35.2861 46.4038C41.643 44.5715 45.2524 38.196 43.4987 31.8967C42.9744 30.013 42.0732 28.4586 40.6336 26.9548C39.1589 25.4144 37.2243 24.2729 35.1875 23.7418C33.8971 23.4051 31.4249 23.3115 30.1677 23.5515ZM34.6954 25.752C38.1971 26.6476 40.9374 29.5442 41.7082 33.1652C41.9724 34.4061 41.873 36.6271 41.5003 37.8125C40.4699 41.0889 37.9279 43.5412 34.6177 44.4524C33.5135 44.7562 31 44.758 29.875 44.4555C28.4019 44.0596 26.8445 43.1944 25.748 42.1629C23.6242 40.165 22.6279 37.8954 22.6259 35.0513C22.6215 28.7463 28.5484 24.1799 34.6954 25.752ZM32.7716 29.4688C32.4804 29.7684 32.2711 30.4824 31.1414 35.032C29.9912 39.6635 29.8622 40.2924 29.9959 40.615C30.2784 41.297 31.2934 41.4339 31.6785 40.8418C31.9114 40.4837 34.375 30.6459 34.375 30.0739C34.375 29.7574 34.2876 29.5744 34.0456 29.3841C33.596 29.0304 33.1702 29.0588 32.7716 29.4688ZM26.1 33.35C24.2739 35.1761 24.2722 35.105 26.1847 36.9919C27.5485 38.3375 27.6396 38.4035 28.0285 38.3283C28.5567 38.2262 28.875 37.8345 28.875 37.2865C28.875 36.9186 28.745 36.7161 28.042 35.9879L27.209 35.125L28.042 34.2621C28.739 33.5401 28.875 33.3295 28.875 32.9715C28.875 32.413 28.449 32 27.8732 32C27.5017 32 27.285 32.165 26.1 33.35ZM35.3968 32.2892C34.8895 32.8294 35.021 33.2915 35.958 34.2621L36.791 35.125L35.958 35.9879C35.255 36.7161 35.125 36.9186 35.125 37.2865C35.125 37.8345 35.4432 38.2262 35.9715 38.3283C36.3604 38.4035 36.4515 38.3375 37.8153 36.9919C39.7277 35.105 39.7261 35.1761 37.9 33.35C36.6939 32.1439 36.503 32 36.1092 32C35.8102 32 35.5813 32.093 35.3968 32.2892Z" fill="white"/>
</g>
</svg>
