<svg width="64" height="64" viewBox="0 0 64 64" fill="none" xmlns="http://www.w3.org/2000/svg">
<g id="Frame 1430102655">
<path id="free-icon-switch-icon-10184385 1 (Traced)" fill-rule="evenodd" clip-rule="evenodd" d="M28.4992 0.499973C28.0752 0.923973 28.1921 1.21997 29.1867 2.2421C29.7023 2.77185 30.1242 3.2436 30.1242 3.29022C30.1242 3.33685 29.8923 3.37497 29.609 3.37497C28.7295 3.37497 26.5103 3.75022 24.8117 4.18622C20.4793 5.29822 16.411 7.4646 13.0617 10.443C11.5342 11.8013 11.4992 11.8413 11.4992 12.2287C11.4992 13.0015 12.2428 13.1291 12.9885 12.4843C16.0121 9.8701 17.5137 8.81072 19.8757 7.6251C22.988 6.0631 25.7888 5.28085 29.9293 4.81735L30.547 4.74822L29.3981 5.91972C28.7586 6.57185 28.2492 7.19722 28.2492 7.33035C28.2492 7.73222 28.6087 8.12497 28.9767 8.12497C29.4762 8.12497 32.9055 4.68397 32.9055 4.1826C32.9055 3.9041 32.5557 3.48972 31.1001 2.0436C29.2076 0.163473 28.9742 0.024973 28.4992 0.499973ZM40.6521 4.9446C40.1068 5.32647 40.3691 6.0871 41.1242 6.31447C41.2961 6.36622 41.9587 6.63172 42.5966 6.90435C43.8411 7.43635 44.2561 7.45435 44.5062 6.98685C44.7278 6.57285 44.5443 6.15272 44.0285 5.89297C43.3722 5.5626 41.2833 4.74997 41.0903 4.74997C41.0021 4.74997 40.8048 4.8376 40.6521 4.9446ZM45.9561 7.6036C45.6521 7.93947 45.7033 8.32022 46.093 8.62297C47.2095 9.48997 48.7686 10.5 48.9906 10.5C49.2866 10.5 49.7492 10.0865 49.7492 9.8221C49.7492 9.4931 49.1302 8.90447 47.9772 8.13722C46.7666 7.33147 46.3111 7.21122 45.9561 7.6036ZM29.608 10.7381C29.3907 10.9138 29.1828 11.4247 28.8128 12.6916L28.3117 14.4072L27.0617 14.7683C26.3566 14.9721 25.0401 15.5136 24.0416 16.0105L22.2715 16.8913L20.6316 15.9946C19.1051 15.1598 18.9667 15.1081 18.6307 15.2473C18.1108 15.4626 15.2492 18.4157 15.2492 18.7368C15.2492 18.8796 15.643 19.7332 16.1242 20.6337C16.6055 21.5342 16.9992 22.3012 16.9992 22.338C16.9992 22.3747 16.7978 22.7363 16.5516 23.1416C15.917 24.1863 15.1497 26.007 14.8202 27.25L14.5386 28.3125L12.7401 28.8381C11.6608 29.1536 10.8781 29.4506 10.7828 29.5808C10.5603 29.8851 10.5582 34.112 10.7805 34.4158C10.8665 34.5333 11.7472 34.8957 12.7378 35.221L14.539 35.8125L14.8712 37C15.2501 38.3546 15.7695 39.5796 16.5081 40.8606L17.0195 41.7476L16.1343 43.3823C15.6475 44.2815 15.2492 45.1353 15.2492 45.2797C15.2492 45.4497 15.8156 46.1088 16.853 47.1462C18.573 48.8661 18.7312 48.9503 19.4367 48.5207C19.643 48.3951 20.3872 47.9968 21.0907 47.6357L22.3697 46.9791L23.1237 47.4371C24.182 48.0801 25.9973 48.847 27.2465 49.179L28.3062 49.4606L28.836 51.2601C29.1505 52.3285 29.4533 53.1237 29.5813 53.2174C29.8845 53.439 34.1123 53.4401 34.4151 53.2187C34.5326 53.1328 34.895 52.249 35.2202 51.2546C35.8105 49.4507 35.8127 49.4465 36.2492 49.3438C37.7532 48.9903 39.6485 48.2073 41.1963 47.3002L41.745 46.9787L43.3806 47.8643C44.2802 48.3515 45.1155 48.75 45.2367 48.75C45.5003 48.75 48.5136 45.7516 48.6732 45.3302C48.7651 45.0881 48.6252 44.734 47.8833 43.3298L46.982 41.6236L47.4382 40.8726C48.0795 39.817 48.8466 38.0006 49.1782 36.7527L49.4598 35.693L51.2593 35.1632C52.3277 34.8487 53.123 34.5458 53.2166 34.4178C53.4382 34.1147 53.4393 29.8868 53.218 29.5841C53.1321 29.4666 52.2512 29.1042 51.2606 28.779L49.4595 28.1875L49.1286 27C48.7577 25.6688 48.3243 24.6465 47.525 23.2168L46.9822 22.2463L47.8657 20.6146C48.3517 19.7171 48.7492 18.8691 48.7492 18.7301C48.7492 18.4155 45.8787 15.459 45.3677 15.2473C45.0317 15.1081 44.8933 15.1598 43.3668 15.9946L41.727 16.8913L39.9568 16.0105C38.9583 15.5136 37.6418 14.9721 36.9367 14.7683L35.6867 14.4072L35.1856 12.6916C34.8156 11.4247 34.6077 10.9138 34.3905 10.7381C34.1276 10.5251 33.8752 10.5 31.9992 10.5C30.1232 10.5 29.8708 10.5251 29.608 10.7381ZM50.7061 11.2286C50.3177 11.6577 50.457 11.9757 51.5305 13.112C55.8063 17.6372 58.4071 23.3238 58.94 29.3125L59.029 30.3125L57.9668 29.2812C57.3827 28.7141 56.798 28.25 56.6673 28.25C56.2668 28.25 55.8742 28.6101 55.8742 28.9775C55.8742 29.477 59.3152 32.9062 59.8166 32.9062C60.0951 32.9062 60.5095 32.5565 61.9556 31.1008C63.8357 29.2083 63.9742 28.975 63.4992 28.5C63.063 28.0637 62.7795 28.1888 61.6081 29.3351C60.5136 30.4061 60.4992 30.4151 60.4992 30.029C60.4992 28.2387 59.6063 24.1131 58.7073 21.75C57.3817 18.265 55.0572 14.5766 52.5825 12.0312C51.5128 10.9311 51.1253 10.7652 50.7061 11.2286ZM33.9455 13.7897C34.2318 14.7396 34.5172 15.568 34.5796 15.6303C34.6421 15.6928 35.2385 15.8822 35.905 16.0513C37.4822 16.4513 38.9907 17.0727 40.3048 17.8637C40.8863 18.2136 41.4797 18.5 41.6235 18.5C41.7671 18.5 42.555 18.1343 43.3742 17.6875C44.1935 17.2406 44.907 16.875 44.96 16.875C45.11 16.875 46.9992 18.79 46.9992 18.942C46.9992 19.0165 46.6343 19.749 46.1883 20.57C45.7423 21.3908 45.3767 22.1625 45.3758 22.2846C45.375 22.4067 45.6808 23.0153 46.0556 23.6371C46.843 24.9431 47.6325 26.8908 47.9357 28.2752C48.0517 28.8047 48.212 29.2903 48.2917 29.3545C48.3715 29.4185 49.2102 29.7118 50.1555 30.0063L51.8742 30.5418V31.9981V33.4545L50.1902 33.9296C49.264 34.191 48.4258 34.4683 48.3277 34.5461C48.2295 34.6238 48.0095 35.252 47.8388 35.9421C47.447 37.5271 46.908 38.8241 46.0493 40.2485C45.678 40.8643 45.3742 41.4605 45.3742 41.5733C45.3742 41.6862 45.754 42.4992 46.218 43.3802L47.0617 44.982L46.1242 45.9751C45.6086 46.5213 45.1271 46.9755 45.0542 46.9841C44.9815 46.9928 44.2502 46.6351 43.4292 46.1891C42.6083 45.7431 41.8367 45.3775 41.7146 45.3766C41.5925 45.3757 40.9838 45.6816 40.3621 46.0563C39.0561 46.8437 37.1083 47.6332 35.724 47.9365C35.1945 48.0525 34.708 48.2127 34.6427 48.2925C34.5776 48.3722 34.2836 49.211 33.9895 50.1562L33.4546 51.875H32.0071H30.5595L30.0725 50.1848C29.8046 49.2553 29.5238 48.4171 29.4486 48.3223C29.3733 48.2275 28.7472 48.0102 28.0571 47.8396C26.4721 47.4477 25.1751 46.9087 23.7507 46.0501C23.1348 45.6787 22.5357 45.375 22.4192 45.375C22.3028 45.375 21.5127 45.7406 20.6635 46.1875C19.8142 46.6343 19.0488 47 18.9625 47C18.775 47 16.9992 45.2381 16.9992 45.0521C16.9992 44.9808 17.3641 44.251 17.8101 43.43C18.2561 42.6091 18.6217 41.8375 18.6226 41.7153C18.6235 41.5932 18.3176 40.9846 17.9428 40.3629C17.1667 39.0755 16.3728 37.1247 16.067 35.7533C15.9523 35.2396 15.8063 34.7563 15.7426 34.6795C15.6788 34.6027 14.8386 34.2951 13.8755 33.996L12.1242 33.452L12.1248 32.0072L12.1256 30.5625L13.8133 30.0756C14.7416 29.8077 15.5795 29.5265 15.6752 29.4506C15.771 29.3746 15.989 28.748 16.1596 28.0578C16.5515 26.4728 17.0905 25.1758 17.9491 23.7515C18.3205 23.1356 18.6242 22.5371 18.6242 22.4216C18.6242 22.306 18.2586 21.5108 17.8117 20.6547C17.3648 19.7986 16.9992 19.0351 16.9992 18.9581C16.9992 18.794 18.8792 16.875 19.04 16.875C19.1 16.875 19.8213 17.2406 20.6428 17.6875C21.4645 18.1343 22.2491 18.5 22.3865 18.5C22.524 18.5 23.1121 18.2136 23.6936 17.8637C25.0113 17.0706 26.5198 16.45 28.0966 16.0521C28.765 15.8836 29.3751 15.6608 29.4526 15.5573C29.5301 15.4538 29.777 14.7377 30.0013 13.9658C30.6461 11.747 30.3967 11.9861 32.023 12.0271L33.4248 12.0625L33.9455 13.7897ZM10.0842 13.6408C9.81195 13.7981 8.42108 15.6471 8.15108 16.211C7.9777 16.573 7.97945 16.6387 8.17008 16.9297C8.47995 17.4025 9.0247 17.3652 9.42658 16.8437C10.6338 15.2766 11.1242 14.5461 11.1242 14.3146C11.1242 13.7712 10.5278 13.385 10.0842 13.6408ZM7.01645 18.2125C6.77858 18.3071 5.5017 20.9892 5.50033 21.3973C5.4982 22.0111 6.1732 22.3475 6.6467 21.9687C6.9822 21.7002 8.1572 18.9258 8.0622 18.6263C7.9477 18.2657 7.41383 18.0543 7.01645 18.2125ZM29.3305 18.7507C28.7221 18.8788 28.1147 19.083 27.9808 19.2041C27.6608 19.4937 27.7263 19.9767 28.1242 20.2612C28.4253 20.4767 28.4777 20.4756 29.5617 20.2312C31.0523 19.8952 33.6801 19.9588 35.171 20.3671C39.3058 21.4992 42.511 24.7317 43.6606 28.9293C44.0382 30.3081 44.0592 33.5987 43.699 34.9375C42.5302 39.2808 39.2952 42.532 34.9992 43.6806C33.933 43.9657 31.1821 44.0786 30.0472 43.8837C25.3408 43.0761 21.6116 39.7201 20.3663 35.1717C20.1748 34.4726 20.0782 33.677 20.0328 32.4252C19.9615 30.4582 20.1345 29.2582 20.6845 27.9045C21.043 27.0223 20.9695 26.56 20.4502 26.4297C19.9312 26.2995 19.6656 26.4755 19.3803 27.1385C18.619 28.9082 18.283 31.9891 18.6211 34.0996C19.5315 39.782 23.8658 44.2364 29.5305 45.311C30.808 45.5533 33.1905 45.5533 34.468 45.311C39.3271 44.3892 43.2325 40.9988 44.8333 36.3125C45.7255 33.7011 45.7206 30.2876 44.8211 27.65C43.2363 23.0035 39.3136 19.6082 34.468 18.689C33.0956 18.4286 30.7235 18.4571 29.3305 18.7507ZM24.3008 20.8277C23.5205 21.3568 22.2495 22.5146 21.7937 23.1115C21.3223 23.7288 21.2661 24.1135 21.6028 24.4181C22.0116 24.7881 22.3612 24.6697 23.0358 23.9331C23.3845 23.5526 24.0672 22.9198 24.5532 22.5271C25.574 21.7021 25.6197 21.6498 25.6223 21.3051C25.6275 20.6067 24.9746 20.3708 24.3008 20.8277ZM4.82583 23.4843C4.48183 23.8646 4.07345 25.4767 4.23283 25.8263C4.4047 26.2038 4.9152 26.3337 5.28183 26.0935C5.56495 25.9081 5.9992 24.621 5.9992 23.9676C5.9992 23.3447 5.23645 23.0306 4.82583 23.4843ZM30.0083 24.5847C29.2211 24.7493 28.7492 25.4187 28.7492 26.371V26.875L27.468 26.8777C25.5922 26.8817 24.7645 27.3047 24.1713 28.5625C23.8885 29.1625 23.8766 29.3026 23.8761 32.0625C23.8758 33.6437 23.9313 35.138 23.9995 35.3831C24.1622 35.9692 24.8966 36.8143 25.5438 37.1605C26.0572 37.4351 26.1123 37.4375 31.8742 37.4375C37.2025 37.4375 37.736 37.4185 38.2782 37.2092C38.9778 36.9394 39.812 36.0566 39.9971 35.3903C40.0662 35.1412 40.1218 33.6437 40.1207 32.0625C40.119 29.4383 40.0965 29.1383 39.8637 28.625C39.521 27.869 39.1815 27.5233 38.4367 27.1721C37.9018 26.9198 37.6181 26.8772 36.468 26.8762L35.1242 26.875L35.1237 26.2812C35.1232 25.6178 34.8075 24.9855 34.3497 24.7307C34.0572 24.5681 30.6378 24.4531 30.0083 24.5847ZM33.6242 26.4375V26.875H31.9367H30.2492V26.4375V26H31.9367H33.6242V26.4375ZM38.1992 28.8C38.4997 29.1005 38.6242 29.3385 38.6242 29.6125V30H31.9992H25.3742V29.6125C25.3742 29.3385 25.4987 29.1005 25.7992 28.8L26.2242 28.375H31.9992H37.7742L38.1992 28.8ZM2.09758 32.8483C0.157077 34.7887 0.018327 35.0191 0.499202 35.5C0.935452 35.9362 1.21895 35.8111 2.39033 34.6648C3.0002 34.0681 3.4992 33.6337 3.4992 33.6998C3.4992 33.7659 3.58583 34.52 3.69183 35.3756C4.07895 38.5026 4.95883 41.4397 6.36933 44.3125C7.3412 46.2922 8.01308 47.3867 9.36145 49.1875C10.5033 50.7123 13.1016 53.375 13.4478 53.375C13.8566 53.375 14.2492 53.0178 14.2492 52.6462C14.2492 52.3866 14.0103 52.0717 13.2352 51.3096C9.43745 47.5751 6.86745 43.0652 5.68583 38.0625C5.43633 37.0062 4.9992 34.3232 4.9992 33.8485C4.9992 33.77 5.47045 34.1656 6.04645 34.7278C6.62245 35.29 7.20045 35.75 7.33108 35.75C7.7337 35.75 8.1242 35.39 8.1242 35.0187C8.1242 34.744 7.75933 34.3146 6.27108 32.8383C5.1982 31.774 4.31858 31 4.18195 31C4.04458 31 3.17345 31.7725 2.09758 32.8483ZM26.8742 31.9761C26.8742 32.5146 27.0578 32.8115 27.4658 32.9326C27.88 33.0556 28.3742 32.5171 28.3742 31.9431V31.5H31.9992H35.6242V31.9431C35.6242 32.5171 36.1185 33.0556 36.5326 32.9326C36.9406 32.8115 37.1242 32.5146 37.1242 31.9761V31.5H37.8742H38.6242V33.2331C38.6242 34.8217 38.6016 34.995 38.3532 35.3107C37.821 35.9873 37.705 36 31.9992 36C26.2935 36 26.1775 35.9873 25.6452 35.3107C25.3968 34.995 25.3742 34.8217 25.3742 33.2331V31.5H26.1242H26.8742V31.9761ZM58.574 37.6931C58.4677 37.7994 58.32 38.1227 58.2457 38.4118C58.1715 38.701 57.9691 39.3713 57.7962 39.9016C57.4186 41.0596 57.4406 41.487 57.8911 41.7386C58.1855 41.9031 58.2545 41.9003 58.5411 41.7125C58.7835 41.5537 58.9571 41.2046 59.2525 40.2825C59.762 38.6923 59.8477 37.9913 59.5675 37.711C59.3037 37.4473 58.8282 37.4389 58.574 37.6931ZM56.6513 43.2091C56.5631 43.2446 56.3177 43.6198 56.1061 44.043C55.8945 44.4662 55.5307 45.1292 55.2978 45.5163C54.8022 46.3397 54.7605 46.7811 55.1521 47.0553C55.5366 47.3247 55.7843 47.2992 56.1056 46.9572C56.5422 46.4926 57.7492 44.2202 57.7492 43.8631C57.7492 43.3196 57.1962 42.9902 56.6513 43.2091ZM52.3957 49.5377C49.1707 53.2423 44.9305 56.0436 40.2648 57.552C38.7292 58.0483 36.2831 58.5678 34.8742 58.6968L33.9367 58.7826L34.843 57.8421C35.7812 56.8685 35.8843 56.6235 35.5546 56.1528C35.1388 55.5592 34.8135 55.7447 32.8882 57.6735C31.4448 59.1195 31.093 59.5396 31.093 59.8173C31.093 60.0958 31.4427 60.5102 32.8983 61.9563C34.7908 63.8365 35.0242 63.975 35.4992 63.5C35.9388 63.0603 35.8117 62.7801 34.6242 61.5691C34.0055 60.9382 33.4992 60.3832 33.4992 60.336C33.4992 60.2887 33.7562 60.25 34.0702 60.25C35.7511 60.25 39.6598 59.4098 41.9546 58.5552C46.415 56.8942 50.9522 53.6741 53.9116 50.0693C54.6628 49.1542 54.7705 48.796 54.3956 48.4568C53.8955 48.0042 53.5845 48.1723 52.3957 49.5377ZM15.3008 54.0616C14.9426 54.6083 15.1432 54.9056 16.4356 55.7427C17.9932 56.7518 18.3607 56.9046 18.756 56.7075C19.3178 56.4273 19.2336 55.6888 18.5981 55.3232C18.3718 55.1931 17.7207 54.7859 17.1512 54.4182C15.993 53.6708 15.6057 53.5962 15.3008 54.0616ZM20.6365 56.8627C20.3096 57.1896 20.2997 57.6437 20.6132 57.9275C20.8963 58.1837 23.5071 59.125 23.9346 59.125C24.3627 59.125 24.6446 58.789 24.5997 58.332C24.5561 57.8886 24.5092 57.8605 22.6867 57.1842C21.0143 56.5637 20.9462 56.553 20.6365 56.8627Z" fill="white"/>
</g>
</svg>
