<svg  width="64" height="64" fill="none" xmlns="http://www.w3.org/2000/svg">
<g id="Frame 29">
<path id="free-icon-scaling-7267578 1 (Traced)" fill-rule="evenodd" clip-rule="evenodd" d="M9.1635 0.122139C8.56462 0.372014 8.4375 0.799513 8.4375 2.56239C8.4375 3.92801 8.47475 4.25514 8.66275 4.54226C8.958 4.99276 9.44613 5.17714 9.988 5.04289C10.6226 4.88564 10.8956 4.42751 10.9694 3.39664L11.0321 2.52064L12.4646 2.47901C13.8565 2.43851 13.9057 2.42739 14.1986 2.08664C14.6074 1.61101 14.6074 0.888764 14.1986 0.413139L13.8971 0.0623885L11.6674 0.0350135C10.4409 0.0200135 9.31425 0.0591385 9.1635 0.122139ZM19.5446 0.121013C18.8467 0.410013 18.648 1.47201 19.1766 2.08664L19.4784 2.43739H23.1875H26.8966L27.1984 2.08664C27.6074 1.61101 27.6075 0.888888 27.1985 0.413139L26.897 0.0623885L23.3547 0.0362635C21.4065 0.0218885 19.692 0.0600135 19.5446 0.121013ZM32.5446 0.121013C31.8467 0.410013 31.648 1.47201 32.1766 2.08664L32.4784 2.43739H36.1875H39.8966L40.1984 2.08664C40.6074 1.61101 40.6075 0.888888 40.1985 0.413139L39.897 0.0623885L36.3548 0.0362635C34.4065 0.0218885 32.692 0.0600135 32.5446 0.121013ZM45.6696 0.121013C44.9717 0.410013 44.773 1.47201 45.3016 2.08664L45.6034 2.43739H49.3125H53.0216L53.3234 2.08664C53.7324 1.61101 53.7325 0.888888 53.3235 0.413139L53.022 0.0623885L49.4798 0.0362635C47.5315 0.0218885 45.817 0.0600135 45.6696 0.121013ZM58.6696 0.123889C57.973 0.405014 57.7729 1.47164 58.3014 2.08664C58.5944 2.42751 58.6431 2.43851 60.0386 2.47914L61.4745 2.52076L61.52 3.52239C61.5615 4.43664 61.596 4.55026 61.9147 4.82451C62.3887 5.23226 63.1116 5.23176 63.5868 4.82351C63.9349 4.52439 63.9378 4.50914 63.9786 2.81089C64.0451 0.0506384 63.9866 -0.0038615 60.975 0.0077635C59.8544 0.0121385 58.817 0.0643885 58.6696 0.123889ZM52.1387 5.17439C51.5472 5.50214 51.3501 6.22239 51.6781 6.85676C51.9351 7.35389 52.3705 7.49989 53.5952 7.49989H54.6789L50.6519 11.5393L46.625 15.5786V16.1473C46.625 16.943 47.0569 17.3749 47.8526 17.3749H48.4212L52.4606 13.348L56.5 9.32101V10.4166C56.5 11.6423 56.6672 12.1151 57.184 12.3505C57.615 12.547 57.9366 12.539 58.3569 12.3218C58.9451 12.0175 59 11.7131 59 8.74989C59 5.78664 58.9451 5.48226 58.3569 5.17801C57.8776 4.93026 52.5849 4.92701 52.1387 5.17439ZM9.1635 9.62026C9.01287 9.68414 8.78788 9.89164 8.6635 10.0814C8.45925 10.3933 8.4375 10.7594 8.4375 13.8915C8.4375 17.2138 8.44825 17.3711 8.6995 17.7095C9.20712 18.3933 10.2504 18.3716 10.7122 17.6676C10.9102 17.3656 10.9424 16.9611 10.9777 14.3183C11.023 10.9298 10.9737 10.3771 10.5857 9.93089C10.2834 9.58301 9.60225 9.43426 9.1635 9.62026ZM61.86 9.87076L61.4891 10.2415L61.5259 13.8816L61.5625 17.5219L61.9132 17.8234C62.389 18.2324 63.1111 18.2323 63.5868 17.8233L63.9375 17.5215V13.8124V10.1033L63.5868 9.80151C63.0695 9.35664 62.345 9.38564 61.86 9.87076ZM13.8295 20.3294C13.1406 21.0184 13.5376 22.2261 14.5174 22.4221C15.0236 22.5234 20.6014 22.5234 21.1076 22.4221C22.0874 22.2261 22.4844 21.0184 21.7955 20.3294L21.4659 19.9999H17.8125H14.1591L13.8295 20.3294ZM26.3295 20.3294C25.6406 21.0184 26.0376 22.2261 27.0174 22.4221C27.5236 22.5234 33.1014 22.5234 33.6076 22.4221C34.5874 22.2261 34.9844 21.0184 34.2955 20.3294L33.9659 19.9999H30.3125H26.6591L26.3295 20.3294ZM38.8295 20.3294C38.3744 20.7845 38.3673 21.583 38.8143 22.03C39.1795 22.3954 39.5999 22.4999 40.7031 22.4999H41.5L41.5014 23.2186C41.5035 24.3214 41.6281 24.8439 41.9707 25.1865C42.409 25.6248 43.216 25.6248 43.6543 25.1865C44.0291 24.8116 44.1222 24.3268 44.1222 22.7499C44.1222 21.173 44.0291 20.6881 43.6543 20.3133C43.3447 20.0038 43.3151 19.9999 41.25 19.9999H39.1591L38.8295 20.3294ZM9.1635 22.6203C9.01287 22.6841 8.78788 22.8916 8.6635 23.0814C8.45925 23.3933 8.4375 23.7594 8.4375 26.8915C8.4375 30.2138 8.44825 30.3711 8.6995 30.7095C9.20712 31.3933 10.2504 31.3716 10.7122 30.6676C10.9102 30.3656 10.9424 29.9611 10.9777 27.3183C11.023 23.9298 10.9737 23.3771 10.5857 22.9309C10.2834 22.583 9.60225 22.4343 9.1635 22.6203ZM61.86 22.9958L61.4891 23.3665L61.5259 27.0066L61.5625 30.6469L61.9132 30.9484C62.389 31.3574 63.1111 31.3573 63.5868 30.9483L63.9375 30.6465V26.9374V23.2283L63.5868 22.9265C63.0695 22.4816 62.345 22.5106 61.86 22.9958ZM31.9545 25.3294C31.4994 25.7845 31.4923 26.583 31.9393 27.03C32.3069 27.3976 32.7242 27.4999 33.857 27.4999H34.6829L30.2245 31.9686C27.285 34.915 25.7375 36.5545 25.682 36.7811C25.4472 37.7404 26.2595 38.5526 27.2188 38.3179C27.4454 38.2624 29.0849 36.7149 32.0312 33.7754L36.5 29.317L36.5014 30.0648C36.5045 31.7598 36.8536 32.3749 37.8125 32.3749C38.4673 32.3749 38.9323 31.962 39.0449 31.2803C39.0875 31.023 39.1222 29.8561 39.1222 28.6874C39.1222 26.1444 39.0638 25.7228 38.6543 25.3133L38.3409 24.9999H35.3125H32.2841L31.9545 25.3294ZM41.9707 29.6883C41.5477 30.1113 41.5028 30.4958 41.5028 33.6874C41.5028 35.1999 41.5375 36.648 41.5801 36.9053C41.6927 37.587 42.1577 37.9999 42.8125 37.9999C43.4673 37.9999 43.9323 37.587 44.0449 36.9053C44.1455 36.2969 44.1455 31.0779 44.0449 30.4695C43.9323 29.7878 43.4673 29.3749 42.8125 29.3749C42.4151 29.3749 42.2064 29.4526 41.9707 29.6883ZM9.1635 35.6203C8.53512 35.8868 8.44063 36.2599 8.39612 38.6503L8.35475 40.8749H4.60238H0.85L0.425 41.2999L0 41.7249V52.4374V63.1499L0.425 63.5749L0.85 63.9999H3.48163C6.33162 63.9999 6.64425 63.9419 6.94688 63.3568C7.17238 62.9208 7.17238 62.579 6.94688 62.143C6.662 61.5921 6.2835 61.4999 4.30662 61.4999H2.5V52.4374V43.3749H11.5625H20.625V52.4374V61.4999H18.7559C16.7131 61.4999 16.3398 61.5888 16.0531 62.143C15.7185 62.7901 15.9505 63.5733 16.559 63.8505C16.7808 63.9516 17.7584 63.9999 19.5809 63.9999H22.275L22.7 63.5749L23.125 63.1499V59.3874V55.6249L25.5312 55.6241C26.8547 55.6238 28.14 55.5673 28.3875 55.4985C29.0375 55.3179 29.3125 54.9583 29.3125 54.2884C29.3125 53.8296 29.249 53.6736 28.9618 53.4265C28.6141 53.1275 28.5875 53.1249 25.868 53.1249H23.125V47.4249V41.7249L22.7 41.2999L22.275 40.8749H16.6375H11L10.9993 38.9061C10.9986 36.8254 10.8955 36.1704 10.5147 35.8258C10.2299 35.568 9.53588 35.4624 9.1635 35.6203ZM61.86 35.9958L61.4891 36.3665L61.5259 40.0066L61.5625 43.6469L61.9132 43.9484C62.389 44.3574 63.1111 44.3573 63.5868 43.9483L63.9375 43.6465V39.9374V36.2283L63.5868 35.9265C63.0695 35.4816 62.345 35.5106 61.86 35.9958ZM41.9707 42.1883C41.7985 42.3605 41.6226 42.7121 41.5801 42.9695C41.4795 43.5779 41.4795 48.7969 41.5801 49.4053C41.6927 50.087 42.1577 50.4999 42.8125 50.4999C43.4673 50.4999 43.9323 50.087 44.0449 49.4053C44.0875 49.148 44.1222 47.6999 44.1222 46.1874C44.1222 44.6749 44.0875 43.2268 44.0449 42.9695C43.9323 42.2878 43.4673 41.8749 42.8125 41.8749C42.4151 41.8749 42.2064 41.9526 41.9707 42.1883ZM61.8654 48.9903L61.5 49.3556V51.2403V53.1249H60.9904C60.589 53.1249 60.3999 53.2058 60.0998 53.5059C59.762 53.8436 59.7267 53.9465 59.7891 54.412C59.9162 55.36 60.7533 55.7386 62.3926 55.59C63.2371 55.5134 63.7049 55.2599 63.8874 54.7799C63.9625 54.5823 63.9982 53.3911 63.9755 51.8378L63.9375 49.2278L63.5868 48.9264C63.072 48.4839 62.3447 48.5109 61.8654 48.9903ZM33.9748 53.5059C33.6415 53.8391 33.6021 53.9501 33.6613 54.3906C33.7443 55.0095 34.0236 55.3349 34.6125 55.4985C34.86 55.5673 36.3844 55.6235 38 55.6235C39.6156 55.6235 41.14 55.5673 41.3875 55.4985C42.0375 55.3179 42.3125 54.9583 42.3125 54.2884C42.3125 53.8296 42.249 53.6736 41.9618 53.4265L41.611 53.1249H37.9834H34.3558L33.9748 53.5059ZM46.9748 53.5059C46.6415 53.8391 46.6021 53.9501 46.6613 54.3906C46.7443 55.0095 47.0236 55.3349 47.6125 55.4985C47.86 55.5673 49.3844 55.6235 51 55.6235C52.6156 55.6235 54.14 55.5673 54.3875 55.4985C55.0375 55.3179 55.3125 54.9583 55.3125 54.2884C55.3125 53.8296 55.249 53.6736 54.9618 53.4265L54.611 53.1249H50.9834H47.3558L46.9748 53.5059ZM10.8888 61.6744C9.80513 62.275 10.2585 63.9999 11.5 63.9999C12.1334 63.9999 12.75 63.3893 12.75 62.762C12.75 61.8235 11.7129 61.2175 10.8888 61.6744Z" fill="white"/>
</g>
</svg>
