<svg width="37" height="36" viewBox="0 0 37 36" fill="none" xmlns="http://www.w3.org/2000/svg">
<g id="Frame 1510072489">
<path id="telegram" fill-rule="evenodd" clip-rule="evenodd" d="M18.7188 34C9.88219 34 2.71875 26.8366 2.71875 18C2.71875 9.16344 9.88219 2 18.7188 2C27.5553 2 34.7188 9.16344 34.7188 18C34.7188 26.8366 27.5553 34 18.7188 34ZM19.4106 14.0074C17.9776 14.6034 15.1136 15.8371 10.8187 17.7083C10.1212 17.9856 9.75589 18.257 9.72263 18.5223C9.66642 18.9706 10.2279 19.1472 10.9925 19.3876C11.0965 19.4203 11.2043 19.4542 11.3147 19.4901C12.067 19.7346 13.0789 20.0207 13.6049 20.0321C14.0821 20.0424 14.6147 19.8457 15.2026 19.4419C19.2156 16.7331 21.287 15.3639 21.4171 15.3344C21.5088 15.3136 21.636 15.2874 21.7221 15.3639C21.8083 15.4405 21.7998 15.5855 21.7907 15.6244C21.7351 15.8615 19.531 17.9106 18.3905 18.971C18.0349 19.3015 17.7827 19.536 17.7311 19.5896C17.6156 19.7096 17.4979 19.823 17.3848 19.9321C16.6859 20.6058 16.1618 21.111 17.4138 21.936C18.0154 22.3325 18.4968 22.6603 18.9771 22.9874C19.5016 23.3446 20.0248 23.7009 20.7017 24.1446C20.8741 24.2576 21.0388 24.375 21.1993 24.4894C21.8097 24.9246 22.3581 25.3155 23.0356 25.2532C23.4293 25.217 23.8359 24.8468 24.0425 23.7427C24.5305 21.1335 25.4899 15.4801 25.7116 13.1505C25.7311 12.9464 25.7066 12.6851 25.687 12.5705C25.6674 12.4558 25.6264 12.2924 25.4773 12.1715C25.3008 12.0283 25.0283 11.9981 24.9064 12.0001C24.3523 12.01 23.5021 12.3056 19.4106 14.0074Z" fill="white"/>
</g>
</svg>
