<svg width="215" height="96" viewBox="0 0 215 96" fill="none" xmlns="http://www.w3.org/2000/svg">
<g id="Alrosa_logo 1" clip-path="url(#clip0_411_3965)">
<g id="g1303">
<g id="g1288">
<g id="Group">
<path id="Shape" d="M107.635 11.4232L86.0878 -0.000976562L64.7246 11.4232H107.635Z" fill="url(#paint0_linear_411_3965)"/>
<path id="Shape_1_" d="M64.7246 11.4229V34.4555L86.0878 45.8797L64.7246 11.4229Z" fill="url(#paint1_linear_411_3965)"/>
<path id="Shape_2_" d="M86.0879 45.8797L107.635 34.4555V11.4229L86.0879 45.8797Z" fill="url(#paint2_linear_411_3965)"/>
</g>
<g id="Group_1_">
<path id="Shape_3_" d="M150.547 34.4561L129.184 45.8802L107.637 34.4561H150.547Z" fill="url(#paint3_linear_411_3965)"/>
<path id="Shape_4_" d="M107.637 34.4558V11.4232L129.184 -0.000976562L107.637 34.4558Z" fill="url(#paint4_linear_411_3965)"/>
<path id="Shape_5_" d="M129.184 -0.000976562L150.547 11.4232V34.4558L129.184 -0.000976562Z" fill="url(#paint5_linear_411_3965)"/>
</g>
</g>
<g id="g1301">
<path id="Shape_7_" d="M123.472 58.9634C112.238 58.9634 104.135 66.1496 104.135 77.3895C104.135 88.8137 112.054 95.8156 123.472 95.8156C134.89 95.8156 142.809 88.8137 142.809 77.3895C142.809 65.9653 134.89 58.9634 123.472 58.9634ZM123.472 88.0766C117.579 88.0766 113.343 83.6544 113.343 77.3895C113.343 71.1246 117.579 66.7023 123.472 66.7023C129.734 66.7023 133.601 70.9403 133.601 77.3895C133.785 83.6544 129.55 88.0766 123.472 88.0766Z" fill="white"/>
<path id="Shape_8_" d="M15.7355 60.8062L0.265625 95.8158H10.7631L25.3121 87.524H13.3414L20.5238 69.4664L30.8371 95.8158H40.782L25.3121 60.8062H15.7355Z" fill="white"/>
<path id="Shape_10_" d="M199.533 60.8062H189.956L174.486 95.8158H184.431L194.745 69.4664L201.927 87.524H189.956L204.505 95.8158H215.003L199.533 60.8062Z" fill="white"/>
<path id="polygon1293" d="M52.3849 87.524V60.8062H43.5449V95.8158H46.6757H52.3849H63.8031L68.9597 87.524H52.3849Z" fill="white"/>
<g id="g1297">
<path id="path1295" d="M150.913 94.7102C148.15 93.9731 146.124 93.0518 144.467 92.1305L147.782 85.1286C149.255 86.0499 151.097 86.9712 153.307 87.524C155.517 88.0768 157.543 88.4453 159.568 88.4453C163.804 88.4453 165.83 87.3397 165.83 85.3129C165.83 84.3916 165.277 83.6545 164.172 83.286C163.067 82.9175 161.226 82.549 159.016 82.1804C156.253 81.8119 153.859 81.2591 152.202 80.7063C150.36 80.1536 148.887 79.2323 147.413 77.7582C146.124 76.2841 145.388 74.4415 145.388 71.8618C145.388 69.6507 145.94 67.8081 147.229 66.1497C148.518 64.4914 150.36 63.2015 152.754 62.2802C155.148 61.3589 157.911 60.8062 161.226 60.8062C163.62 60.8062 166.014 60.9904 168.408 61.5432C170.802 62.096 172.828 62.833 174.302 63.7543L170.987 70.7563C167.856 69.0979 164.541 68.1766 161.042 68.1766C159.016 68.1766 157.358 68.5451 156.253 69.0979C155.148 69.6507 154.596 70.3877 154.596 71.309C154.596 72.4146 155.148 73.1516 156.253 73.5202C157.358 73.8887 159.2 74.2572 161.594 74.81C164.357 75.3628 166.567 75.7313 168.408 76.2841C170.25 76.8369 171.723 77.7582 173.012 79.2323C174.302 80.7063 175.038 82.549 175.038 85.1286C175.038 87.1555 174.486 89.1824 173.197 90.8407C171.907 92.499 170.066 93.7889 167.672 94.7102C165.277 95.6315 162.331 96 159.016 96C156.253 95.8157 153.491 95.4472 150.913 94.7102Z" fill="white"/>
</g>
<path id="path1299" d="M95.4798 82.9177C98.4264 80.8908 100.452 77.9426 100.452 73.1518C100.452 64.4916 94.1906 60.6221 86.824 60.6221L71.1699 60.8063V95.8159H80.0099V68.5453L86.2715 68.361C89.4023 68.361 91.9806 70.0194 91.9806 73.7046C91.9806 77.3898 88.8498 78.8639 85.719 78.8639H83.3248L85.719 82.9177L93.0856 95.8159H103.031L95.4798 82.9177Z" fill="white"/>
</g>
</g>
</g>
<defs>
<linearGradient id="paint0_linear_411_3965" x1="64.6554" y1="5.73707" x2="107.614" y2="5.73707" gradientUnits="userSpaceOnUse">
<stop stop-color="#800000"/>
<stop offset="0.5" stop-color="#FF0000"/>
<stop offset="1" stop-color="#FCA789"/>
</linearGradient>
<linearGradient id="paint1_linear_411_3965" x1="77.4914" y1="48.6933" x2="59.678" y2="20.2195" gradientUnits="userSpaceOnUse">
<stop stop-color="#800000"/>
<stop offset="0.5" stop-color="#FF0000"/>
<stop offset="1" stop-color="#FCA789"/>
</linearGradient>
<linearGradient id="paint2_linear_411_3965" x1="103.167" y1="14.3276" x2="85.3519" y2="42.8058" gradientUnits="userSpaceOnUse">
<stop stop-color="#800000"/>
<stop offset="0.5" stop-color="#FF0000"/>
<stop offset="1" stop-color="#FCA789"/>
</linearGradient>
<linearGradient id="paint3_linear_411_3965" x1="150.624" y1="40.1033" x2="107.658" y2="40.1033" gradientUnits="userSpaceOnUse">
<stop stop-color="#021729"/>
<stop offset="0.5" stop-color="#095CA6"/>
<stop offset="1" stop-color="#99C4DE"/>
</linearGradient>
<linearGradient id="paint4_linear_411_3965" x1="112.104" y1="31.511" x2="129.917" y2="3.03406" gradientUnits="userSpaceOnUse">
<stop stop-color="#021729"/>
<stop offset="0.5" stop-color="#095CA6"/>
<stop offset="1" stop-color="#99C4DE"/>
</linearGradient>
<linearGradient id="paint5_linear_411_3965" x1="137.781" y1="-2.8546" x2="155.595" y2="25.623" gradientUnits="userSpaceOnUse">
<stop stop-color="#021729"/>
<stop offset="0.5" stop-color="#095CA6"/>
<stop offset="1" stop-color="#99C4DE"/>
</linearGradient>
<clipPath id="clip0_411_3965">
<rect width="214.737" height="96" fill="white" transform="translate(0.263672)"/>
</clipPath>
</defs>
</svg>
